ISO-10303-21;
HEADER;
/* Generated by software containing ST-Developer
 * from STEP Tools, Inc. (www.steptools.com) 
 */

FILE_DESCRIPTION(
/* description */ (''),
/* implementation_level */ '2;1');

FILE_NAME(
/* name */ 'lid.step',
/* time_stamp */ '2026-06-07T22:07:32+01:00',
/* author */ (''),
/* organization */ (''),
/* preprocessor_version */ 'ST-DEVELOPER v20.1',
/* originating_system */ 'Autodesk Translation Framework v15.8.0.0',
/* authorisation */ '');

FILE_SCHEMA (('AUTOMOTIVE_DESIGN { 1 0 10303 214 3 1 1 }'));
ENDSEC;

DATA;
#10=MECHANICAL_DESIGN_GEOMETRIC_PRESENTATION_REPRESENTATION('',(#13),#1151);
#11=SHAPE_REPRESENTATION_RELATIONSHIP('SRR','None',#1158,#12);
#12=ADVANCED_BREP_SHAPE_REPRESENTATION('',(#14),#1150);
#13=STYLED_ITEM('',(#1167),#14);
#14=MANIFOLD_SOLID_BREP('Body1',#675);
#15=FACE_BOUND('',#130,.T.);
#16=FACE_BOUND('',#133,.T.);
#17=FACE_BOUND('',#137,.T.);
#18=FACE_BOUND('',#140,.T.);
#19=FACE_BOUND('',#152,.T.);
#20=FACE_BOUND('',#153,.T.);
#21=FACE_BOUND('',#154,.T.);
#22=FACE_BOUND('',#155,.T.);
#23=FACE_BOUND('',#157,.T.);
#24=FACE_BOUND('',#158,.T.);
#25=FACE_BOUND('',#159,.T.);
#26=FACE_BOUND('',#160,.T.);
#27=FACE_BOUND('',#161,.T.);
#28=FACE_BOUND('',#162,.T.);
#29=FACE_BOUND('',#163,.T.);
#30=FACE_BOUND('',#164,.T.);
#31=FACE_BOUND('',#165,.T.);
#32=FACE_BOUND('',#166,.T.);
#33=FACE_BOUND('',#167,.T.);
#34=FACE_BOUND('',#168,.T.);
#35=FACE_BOUND('',#169,.T.);
#36=FACE_BOUND('',#170,.T.);
#37=FACE_BOUND('',#171,.T.);
#38=FACE_BOUND('',#172,.T.);
#39=PLANE('',#692);
#40=PLANE('',#696);
#41=PLANE('',#700);
#42=PLANE('',#704);
#43=PLANE('',#708);
#44=PLANE('',#712);
#45=PLANE('',#716);
#46=PLANE('',#720);
#47=PLANE('',#724);
#48=PLANE('',#728);
#49=PLANE('',#735);
#50=PLANE('',#736);
#51=PLANE('',#737);
#52=PLANE('',#738);
#53=PLANE('',#739);
#54=PLANE('',#740);
#55=PLANE('',#741);
#56=PLANE('',#742);
#57=PLANE('',#743);
#58=PLANE('',#744);
#59=PLANE('',#757);
#60=PLANE('',#758);
#61=PLANE('',#759);
#62=PLANE('',#760);
#63=PLANE('',#761);
#64=PLANE('',#762);
#65=FACE_OUTER_BOUND('',#107,.T.);
#66=FACE_OUTER_BOUND('',#108,.T.);
#67=FACE_OUTER_BOUND('',#109,.T.);
#68=FACE_OUTER_BOUND('',#110,.T.);
#69=FACE_OUTER_BOUND('',#111,.T.);
#70=FACE_OUTER_BOUND('',#112,.T.);
#71=FACE_OUTER_BOUND('',#113,.T.);
#72=FACE_OUTER_BOUND('',#114,.T.);
#73=FACE_OUTER_BOUND('',#115,.T.);
#74=FACE_OUTER_BOUND('',#116,.T.);
#75=FACE_OUTER_BOUND('',#117,.T.);
#76=FACE_OUTER_BOUND('',#118,.T.);
#77=FACE_OUTER_BOUND('',#119,.T.);
#78=FACE_OUTER_BOUND('',#120,.T.);
#79=FACE_OUTER_BOUND('',#121,.T.);
#80=FACE_OUTER_BOUND('',#122,.T.);
#81=FACE_OUTER_BOUND('',#123,.T.);
#82=FACE_OUTER_BOUND('',#124,.T.);
#83=FACE_OUTER_BOUND('',#125,.T.);
#84=FACE_OUTER_BOUND('',#126,.T.);
#85=FACE_OUTER_BOUND('',#127,.T.);
#86=FACE_OUTER_BOUND('',#128,.T.);
#87=FACE_OUTER_BOUND('',#129,.T.);
#88=FACE_OUTER_BOUND('',#131,.T.);
#89=FACE_OUTER_BOUND('',#132,.T.);
#90=FACE_OUTER_BOUND('',#134,.T.);
#91=FACE_OUTER_BOUND('',#135,.T.);
#92=FACE_OUTER_BOUND('',#136,.T.);
#93=FACE_OUTER_BOUND('',#138,.T.);
#94=FACE_OUTER_BOUND('',#139,.T.);
#95=FACE_OUTER_BOUND('',#141,.T.);
#96=FACE_OUTER_BOUND('',#142,.T.);
#97=FACE_OUTER_BOUND('',#143,.T.);
#98=FACE_OUTER_BOUND('',#144,.T.);
#99=FACE_OUTER_BOUND('',#145,.T.);
#100=FACE_OUTER_BOUND('',#146,.T.);
#101=FACE_OUTER_BOUND('',#147,.T.);
#102=FACE_OUTER_BOUND('',#148,.T.);
#103=FACE_OUTER_BOUND('',#149,.T.);
#104=FACE_OUTER_BOUND('',#150,.T.);
#105=FACE_OUTER_BOUND('',#151,.T.);
#106=FACE_OUTER_BOUND('',#156,.T.);
#107=EDGE_LOOP('',(#449,#450,#451,#452));
#108=EDGE_LOOP('',(#453));
#109=EDGE_LOOP('',(#454,#455,#456,#457));
#110=EDGE_LOOP('',(#458));
#111=EDGE_LOOP('',(#459,#460,#461,#462));
#112=EDGE_LOOP('',(#463));
#113=EDGE_LOOP('',(#464,#465,#466,#467));
#114=EDGE_LOOP('',(#468));
#115=EDGE_LOOP('',(#469,#470,#471,#472));
#116=EDGE_LOOP('',(#473));
#117=EDGE_LOOP('',(#474,#475,#476,#477));
#118=EDGE_LOOP('',(#478));
#119=EDGE_LOOP('',(#479,#480,#481,#482));
#120=EDGE_LOOP('',(#483));
#121=EDGE_LOOP('',(#484,#485,#486,#487));
#122=EDGE_LOOP('',(#488));
#123=EDGE_LOOP('',(#489,#490,#491,#492));
#124=EDGE_LOOP('',(#493));
#125=EDGE_LOOP('',(#494,#495,#496,#497));
#126=EDGE_LOOP('',(#498));
#127=EDGE_LOOP('',(#499,#500,#501,#502));
#128=EDGE_LOOP('',(#503,#504,#505,#506));
#129=EDGE_LOOP('',(#507,#508,#509,#510));
#130=EDGE_LOOP('',(#511));
#131=EDGE_LOOP('',(#512,#513,#514,#515));
#132=EDGE_LOOP('',(#516,#517,#518,#519));
#133=EDGE_LOOP('',(#520));
#134=EDGE_LOOP('',(#521,#522,#523,#524));
#135=EDGE_LOOP('',(#525,#526,#527,#528));
#136=EDGE_LOOP('',(#529,#530,#531,#532));
#137=EDGE_LOOP('',(#533));
#138=EDGE_LOOP('',(#534,#535,#536,#537));
#139=EDGE_LOOP('',(#538,#539,#540,#541));
#140=EDGE_LOOP('',(#542));
#141=EDGE_LOOP('',(#543,#544,#545,#546));
#142=EDGE_LOOP('',(#547,#548,#549,#550));
#143=EDGE_LOOP('',(#551,#552,#553,#554));
#144=EDGE_LOOP('',(#555,#556,#557,#558));
#145=EDGE_LOOP('',(#559,#560,#561,#562));
#146=EDGE_LOOP('',(#563,#564,#565,#566));
#147=EDGE_LOOP('',(#567,#568,#569,#570));
#148=EDGE_LOOP('',(#571,#572,#573,#574));
#149=EDGE_LOOP('',(#575,#576,#577,#578));
#150=EDGE_LOOP('',(#579,#580,#581,#582));
#151=EDGE_LOOP('',(#583,#584,#585,#586));
#152=EDGE_LOOP('',(#587));
#153=EDGE_LOOP('',(#588));
#154=EDGE_LOOP('',(#589));
#155=EDGE_LOOP('',(#590));
#156=EDGE_LOOP('',(#591,#592,#593,#594));
#157=EDGE_LOOP('',(#595));
#158=EDGE_LOOP('',(#596));
#159=EDGE_LOOP('',(#597));
#160=EDGE_LOOP('',(#598));
#161=EDGE_LOOP('',(#599));
#162=EDGE_LOOP('',(#600));
#163=EDGE_LOOP('',(#601));
#164=EDGE_LOOP('',(#602));
#165=EDGE_LOOP('',(#603,#604,#605,#606));
#166=EDGE_LOOP('',(#607,#608,#609,#610));
#167=EDGE_LOOP('',(#611));
#168=EDGE_LOOP('',(#612));
#169=EDGE_LOOP('',(#613));
#170=EDGE_LOOP('',(#614));
#171=EDGE_LOOP('',(#615));
#172=EDGE_LOOP('',(#616));
#173=LINE('',#970,#225);
#174=LINE('',#977,#226);
#175=LINE('',#984,#227);
#176=LINE('',#991,#228);
#177=LINE('',#998,#229);
#178=LINE('',#1005,#230);
#179=LINE('',#1012,#231);
#180=LINE('',#1019,#232);
#181=LINE('',#1026,#233);
#182=LINE('',#1033,#234);
#183=LINE('',#1040,#235);
#184=LINE('',#1046,#236);
#185=LINE('',#1051,#237);
#186=LINE('',#1053,#238);
#187=LINE('',#1055,#239);
#188=LINE('',#1056,#240);
#189=LINE('',#1059,#241);
#190=LINE('',#1061,#242);
#191=LINE('',#1062,#243);
#192=LINE('',#1065,#244);
#193=LINE('',#1067,#245);
#194=LINE('',#1068,#246);
#195=LINE('',#1070,#247);
#196=LINE('',#1071,#248);
#197=LINE('',#1076,#249);
#198=LINE('',#1078,#250);
#199=LINE('',#1080,#251);
#200=LINE('',#1081,#252);
#201=LINE('',#1084,#253);
#202=LINE('',#1086,#254);
#203=LINE('',#1087,#255);
#204=LINE('',#1090,#256);
#205=LINE('',#1092,#257);
#206=LINE('',#1093,#258);
#207=LINE('',#1095,#259);
#208=LINE('',#1096,#260);
#209=LINE('',#1102,#261);
#210=LINE('',#1108,#262);
#211=LINE('',#1114,#263);
#212=LINE('',#1120,#264);
#213=LINE('',#1125,#265);
#214=LINE('',#1127,#266);
#215=LINE('',#1129,#267);
#216=LINE('',#1130,#268);
#217=LINE('',#1133,#269);
#218=LINE('',#1135,#270);
#219=LINE('',#1136,#271);
#220=LINE('',#1139,#272);
#221=LINE('',#1141,#273);
#222=LINE('',#1142,#274);
#223=LINE('',#1144,#275);
#224=LINE('',#1145,#276);
#225=VECTOR('',#769,1.78204624637917);
#226=VECTOR('',#778,1.67325130079657);
#227=VECTOR('',#787,1.54925136391554);
#228=VECTOR('',#796,1.6164801274271);
#229=VECTOR('',#805,1.62539778419265);
#230=VECTOR('',#814,1.5620499002668);
#231=VECTOR('',#823,1.55182466673693);
#232=VECTOR('',#832,1.58113879474298);
#233=VECTOR('',#841,1.5867342743076);
#234=VECTOR('',#850,1.55967301320072);
#235=VECTOR('',#859,2.08003326591584);
#236=VECTOR('',#866,2.05208351615084);
#237=VECTOR('',#871,10.);
#238=VECTOR('',#872,10.);
#239=VECTOR('',#873,10.);
#240=VECTOR('',#874,10.);
#241=VECTOR('',#877,10.);
#242=VECTOR('',#878,10.);
#243=VECTOR('',#879,10.);
#244=VECTOR('',#882,10.);
#245=VECTOR('',#883,10.);
#246=VECTOR('',#884,10.);
#247=VECTOR('',#887,10.);
#248=VECTOR('',#888,10.);
#249=VECTOR('',#893,10.);
#250=VECTOR('',#894,10.);
#251=VECTOR('',#895,10.);
#252=VECTOR('',#896,10.);
#253=VECTOR('',#899,10.);
#254=VECTOR('',#900,10.);
#255=VECTOR('',#901,10.);
#256=VECTOR('',#904,10.);
#257=VECTOR('',#905,10.);
#258=VECTOR('',#906,10.);
#259=VECTOR('',#909,10.);
#260=VECTOR('',#910,10.);
#261=VECTOR('',#917,5.);
#262=VECTOR('',#924,5.);
#263=VECTOR('',#931,5.);
#264=VECTOR('',#938,5.);
#265=VECTOR('',#943,10.);
#266=VECTOR('',#944,10.);
#267=VECTOR('',#945,10.);
#268=VECTOR('',#946,10.);
#269=VECTOR('',#949,10.);
#270=VECTOR('',#950,10.);
#271=VECTOR('',#951,10.);
#272=VECTOR('',#954,10.);
#273=VECTOR('',#955,10.);
#274=VECTOR('',#956,10.);
#275=VECTOR('',#959,10.);
#276=VECTOR('',#960,10.);
#277=CIRCLE('',#690,1.465);
#278=CIRCLE('',#691,1.465);
#279=CIRCLE('',#694,1.465);
#280=CIRCLE('',#695,1.465);
#281=CIRCLE('',#698,1.2645);
#282=CIRCLE('',#699,1.2645);
#283=CIRCLE('',#702,1.2645);
#284=CIRCLE('',#703,1.2645);
#285=CIRCLE('',#706,1.2645);
#286=CIRCLE('',#707,1.2645);
#287=CIRCLE('',#710,1.2645);
#288=CIRCLE('',#711,1.2645);
#289=CIRCLE('',#714,1.2645);
#290=CIRCLE('',#715,1.2645);
#291=CIRCLE('',#718,1.2645);
#292=CIRCLE('',#719,1.2645);
#293=CIRCLE('',#722,1.2645);
#294=CIRCLE('',#723,1.2645);
#295=CIRCLE('',#726,1.2645);
#296=CIRCLE('',#727,1.2645);
#297=CIRCLE('',#730,1.666);
#298=CIRCLE('',#731,1.666);
#299=CIRCLE('',#733,1.666);
#300=CIRCLE('',#734,1.666);
#301=CIRCLE('',#746,4.263);
#302=CIRCLE('',#747,4.263);
#303=CIRCLE('',#749,4.263);
#304=CIRCLE('',#750,4.263);
#305=CIRCLE('',#752,4.263);
#306=CIRCLE('',#753,4.263);
#307=CIRCLE('',#755,4.263);
#308=CIRCLE('',#756,4.263);
#309=VERTEX_POINT('',#967);
#310=VERTEX_POINT('',#969);
#311=VERTEX_POINT('',#974);
#312=VERTEX_POINT('',#976);
#313=VERTEX_POINT('',#981);
#314=VERTEX_POINT('',#983);
#315=VERTEX_POINT('',#988);
#316=VERTEX_POINT('',#990);
#317=VERTEX_POINT('',#995);
#318=VERTEX_POINT('',#997);
#319=VERTEX_POINT('',#1002);
#320=VERTEX_POINT('',#1004);
#321=VERTEX_POINT('',#1009);
#322=VERTEX_POINT('',#1011);
#323=VERTEX_POINT('',#1016);
#324=VERTEX_POINT('',#1018);
#325=VERTEX_POINT('',#1023);
#326=VERTEX_POINT('',#1025);
#327=VERTEX_POINT('',#1030);
#328=VERTEX_POINT('',#1032);
#329=VERTEX_POINT('',#1037);
#330=VERTEX_POINT('',#1039);
#331=VERTEX_POINT('',#1043);
#332=VERTEX_POINT('',#1045);
#333=VERTEX_POINT('',#1049);
#334=VERTEX_POINT('',#1050);
#335=VERTEX_POINT('',#1052);
#336=VERTEX_POINT('',#1054);
#337=VERTEX_POINT('',#1058);
#338=VERTEX_POINT('',#1060);
#339=VERTEX_POINT('',#1064);
#340=VERTEX_POINT('',#1066);
#341=VERTEX_POINT('',#1074);
#342=VERTEX_POINT('',#1075);
#343=VERTEX_POINT('',#1077);
#344=VERTEX_POINT('',#1079);
#345=VERTEX_POINT('',#1083);
#346=VERTEX_POINT('',#1085);
#347=VERTEX_POINT('',#1089);
#348=VERTEX_POINT('',#1091);
#349=VERTEX_POINT('',#1099);
#350=VERTEX_POINT('',#1101);
#351=VERTEX_POINT('',#1105);
#352=VERTEX_POINT('',#1107);
#353=VERTEX_POINT('',#1111);
#354=VERTEX_POINT('',#1113);
#355=VERTEX_POINT('',#1117);
#356=VERTEX_POINT('',#1119);
#357=VERTEX_POINT('',#1123);
#358=VERTEX_POINT('',#1124);
#359=VERTEX_POINT('',#1126);
#360=VERTEX_POINT('',#1128);
#361=VERTEX_POINT('',#1132);
#362=VERTEX_POINT('',#1134);
#363=VERTEX_POINT('',#1138);
#364=VERTEX_POINT('',#1140);
#365=EDGE_CURVE('',#309,#309,#277,.F.);
#366=EDGE_CURVE('',#309,#310,#173,.T.);
#367=EDGE_CURVE('',#310,#310,#278,.F.);
#368=EDGE_CURVE('',#311,#311,#279,.F.);
#369=EDGE_CURVE('',#311,#312,#174,.T.);
#370=EDGE_CURVE('',#312,#312,#280,.F.);
#371=EDGE_CURVE('',#313,#313,#281,.F.);
#372=EDGE_CURVE('',#313,#314,#175,.T.);
#373=EDGE_CURVE('',#314,#314,#282,.F.);
#374=EDGE_CURVE('',#315,#315,#283,.F.);
#375=EDGE_CURVE('',#315,#316,#176,.T.);
#376=EDGE_CURVE('',#316,#316,#284,.F.);
#377=EDGE_CURVE('',#317,#317,#285,.F.);
#378=EDGE_CURVE('',#317,#318,#177,.T.);
#379=EDGE_CURVE('',#318,#318,#286,.F.);
#380=EDGE_CURVE('',#319,#319,#287,.F.);
#381=EDGE_CURVE('',#319,#320,#178,.T.);
#382=EDGE_CURVE('',#320,#320,#288,.F.);
#383=EDGE_CURVE('',#321,#321,#289,.F.);
#384=EDGE_CURVE('',#321,#322,#179,.T.);
#385=EDGE_CURVE('',#322,#322,#290,.F.);
#386=EDGE_CURVE('',#323,#323,#291,.F.);
#387=EDGE_CURVE('',#323,#324,#180,.T.);
#388=EDGE_CURVE('',#324,#324,#292,.F.);
#389=EDGE_CURVE('',#325,#325,#293,.F.);
#390=EDGE_CURVE('',#325,#326,#181,.T.);
#391=EDGE_CURVE('',#326,#326,#294,.F.);
#392=EDGE_CURVE('',#327,#327,#295,.F.);
#393=EDGE_CURVE('',#327,#328,#182,.T.);
#394=EDGE_CURVE('',#328,#328,#296,.F.);
#395=EDGE_CURVE('',#329,#329,#297,.T.);
#396=EDGE_CURVE('',#329,#330,#183,.T.);
#397=EDGE_CURVE('',#330,#330,#298,.T.);
#398=EDGE_CURVE('',#331,#331,#299,.T.);
#399=EDGE_CURVE('',#331,#332,#184,.T.);
#400=EDGE_CURVE('',#332,#332,#300,.T.);
#401=EDGE_CURVE('',#333,#334,#185,.T.);
#402=EDGE_CURVE('',#333,#335,#186,.T.);
#403=EDGE_CURVE('',#336,#335,#187,.T.);
#404=EDGE_CURVE('',#334,#336,#188,.T.);
#405=EDGE_CURVE('',#334,#337,#189,.T.);
#406=EDGE_CURVE('',#338,#336,#190,.T.);
#407=EDGE_CURVE('',#337,#338,#191,.T.);
#408=EDGE_CURVE('',#337,#339,#192,.T.);
#409=EDGE_CURVE('',#340,#338,#193,.T.);
#410=EDGE_CURVE('',#339,#340,#194,.T.);
#411=EDGE_CURVE('',#339,#333,#195,.T.);
#412=EDGE_CURVE('',#335,#340,#196,.T.);
#413=EDGE_CURVE('',#341,#342,#197,.T.);
#414=EDGE_CURVE('',#341,#343,#198,.T.);
#415=EDGE_CURVE('',#344,#343,#199,.T.);
#416=EDGE_CURVE('',#342,#344,#200,.T.);
#417=EDGE_CURVE('',#342,#345,#201,.T.);
#418=EDGE_CURVE('',#346,#344,#202,.T.);
#419=EDGE_CURVE('',#345,#346,#203,.T.);
#420=EDGE_CURVE('',#345,#347,#204,.T.);
#421=EDGE_CURVE('',#348,#346,#205,.T.);
#422=EDGE_CURVE('',#347,#348,#206,.T.);
#423=EDGE_CURVE('',#347,#341,#207,.T.);
#424=EDGE_CURVE('',#343,#348,#208,.T.);
#425=EDGE_CURVE('',#349,#349,#301,.F.);
#426=EDGE_CURVE('',#349,#350,#209,.T.);
#427=EDGE_CURVE('',#350,#350,#302,.F.);
#428=EDGE_CURVE('',#351,#351,#303,.F.);
#429=EDGE_CURVE('',#351,#352,#210,.T.);
#430=EDGE_CURVE('',#352,#352,#304,.F.);
#431=EDGE_CURVE('',#353,#353,#305,.F.);
#432=EDGE_CURVE('',#353,#354,#211,.T.);
#433=EDGE_CURVE('',#354,#354,#306,.F.);
#434=EDGE_CURVE('',#355,#355,#307,.F.);
#435=EDGE_CURVE('',#355,#356,#212,.T.);
#436=EDGE_CURVE('',#356,#356,#308,.F.);
#437=EDGE_CURVE('',#357,#358,#213,.T.);
#438=EDGE_CURVE('',#357,#359,#214,.T.);
#439=EDGE_CURVE('',#360,#359,#215,.T.);
#440=EDGE_CURVE('',#358,#360,#216,.T.);
#441=EDGE_CURVE('',#358,#361,#217,.T.);
#442=EDGE_CURVE('',#362,#360,#218,.T.);
#443=EDGE_CURVE('',#361,#362,#219,.T.);
#444=EDGE_CURVE('',#361,#363,#220,.T.);
#445=EDGE_CURVE('',#364,#362,#221,.T.);
#446=EDGE_CURVE('',#363,#364,#222,.T.);
#447=EDGE_CURVE('',#363,#357,#223,.T.);
#448=EDGE_CURVE('',#359,#364,#224,.T.);
#449=ORIENTED_EDGE('',*,*,#365,.F.);
#450=ORIENTED_EDGE('',*,*,#366,.T.);
#451=ORIENTED_EDGE('',*,*,#367,.T.);
#452=ORIENTED_EDGE('',*,*,#366,.F.);
#453=ORIENTED_EDGE('',*,*,#367,.F.);
#454=ORIENTED_EDGE('',*,*,#368,.F.);
#455=ORIENTED_EDGE('',*,*,#369,.T.);
#456=ORIENTED_EDGE('',*,*,#370,.T.);
#457=ORIENTED_EDGE('',*,*,#369,.F.);
#458=ORIENTED_EDGE('',*,*,#370,.F.);
#459=ORIENTED_EDGE('',*,*,#371,.F.);
#460=ORIENTED_EDGE('',*,*,#372,.T.);
#461=ORIENTED_EDGE('',*,*,#373,.T.);
#462=ORIENTED_EDGE('',*,*,#372,.F.);
#463=ORIENTED_EDGE('',*,*,#373,.F.);
#464=ORIENTED_EDGE('',*,*,#374,.F.);
#465=ORIENTED_EDGE('',*,*,#375,.T.);
#466=ORIENTED_EDGE('',*,*,#376,.T.);
#467=ORIENTED_EDGE('',*,*,#375,.F.);
#468=ORIENTED_EDGE('',*,*,#376,.F.);
#469=ORIENTED_EDGE('',*,*,#377,.F.);
#470=ORIENTED_EDGE('',*,*,#378,.T.);
#471=ORIENTED_EDGE('',*,*,#379,.T.);
#472=ORIENTED_EDGE('',*,*,#378,.F.);
#473=ORIENTED_EDGE('',*,*,#379,.F.);
#474=ORIENTED_EDGE('',*,*,#380,.F.);
#475=ORIENTED_EDGE('',*,*,#381,.T.);
#476=ORIENTED_EDGE('',*,*,#382,.T.);
#477=ORIENTED_EDGE('',*,*,#381,.F.);
#478=ORIENTED_EDGE('',*,*,#382,.F.);
#479=ORIENTED_EDGE('',*,*,#383,.F.);
#480=ORIENTED_EDGE('',*,*,#384,.T.);
#481=ORIENTED_EDGE('',*,*,#385,.T.);
#482=ORIENTED_EDGE('',*,*,#384,.F.);
#483=ORIENTED_EDGE('',*,*,#385,.F.);
#484=ORIENTED_EDGE('',*,*,#386,.F.);
#485=ORIENTED_EDGE('',*,*,#387,.T.);
#486=ORIENTED_EDGE('',*,*,#388,.T.);
#487=ORIENTED_EDGE('',*,*,#387,.F.);
#488=ORIENTED_EDGE('',*,*,#388,.F.);
#489=ORIENTED_EDGE('',*,*,#389,.F.);
#490=ORIENTED_EDGE('',*,*,#390,.T.);
#491=ORIENTED_EDGE('',*,*,#391,.T.);
#492=ORIENTED_EDGE('',*,*,#390,.F.);
#493=ORIENTED_EDGE('',*,*,#391,.F.);
#494=ORIENTED_EDGE('',*,*,#392,.F.);
#495=ORIENTED_EDGE('',*,*,#393,.T.);
#496=ORIENTED_EDGE('',*,*,#394,.T.);
#497=ORIENTED_EDGE('',*,*,#393,.F.);
#498=ORIENTED_EDGE('',*,*,#394,.F.);
#499=ORIENTED_EDGE('',*,*,#395,.F.);
#500=ORIENTED_EDGE('',*,*,#396,.T.);
#501=ORIENTED_EDGE('',*,*,#397,.F.);
#502=ORIENTED_EDGE('',*,*,#396,.F.);
#503=ORIENTED_EDGE('',*,*,#398,.F.);
#504=ORIENTED_EDGE('',*,*,#399,.T.);
#505=ORIENTED_EDGE('',*,*,#400,.F.);
#506=ORIENTED_EDGE('',*,*,#399,.F.);
#507=ORIENTED_EDGE('',*,*,#401,.F.);
#508=ORIENTED_EDGE('',*,*,#402,.T.);
#509=ORIENTED_EDGE('',*,*,#403,.F.);
#510=ORIENTED_EDGE('',*,*,#404,.F.);
#511=ORIENTED_EDGE('',*,*,#400,.T.);
#512=ORIENTED_EDGE('',*,*,#405,.F.);
#513=ORIENTED_EDGE('',*,*,#404,.T.);
#514=ORIENTED_EDGE('',*,*,#406,.F.);
#515=ORIENTED_EDGE('',*,*,#407,.F.);
#516=ORIENTED_EDGE('',*,*,#408,.F.);
#517=ORIENTED_EDGE('',*,*,#407,.T.);
#518=ORIENTED_EDGE('',*,*,#409,.F.);
#519=ORIENTED_EDGE('',*,*,#410,.F.);
#520=ORIENTED_EDGE('',*,*,#398,.T.);
#521=ORIENTED_EDGE('',*,*,#411,.F.);
#522=ORIENTED_EDGE('',*,*,#410,.T.);
#523=ORIENTED_EDGE('',*,*,#412,.F.);
#524=ORIENTED_EDGE('',*,*,#402,.F.);
#525=ORIENTED_EDGE('',*,*,#412,.T.);
#526=ORIENTED_EDGE('',*,*,#409,.T.);
#527=ORIENTED_EDGE('',*,*,#406,.T.);
#528=ORIENTED_EDGE('',*,*,#403,.T.);
#529=ORIENTED_EDGE('',*,*,#413,.F.);
#530=ORIENTED_EDGE('',*,*,#414,.T.);
#531=ORIENTED_EDGE('',*,*,#415,.F.);
#532=ORIENTED_EDGE('',*,*,#416,.F.);
#533=ORIENTED_EDGE('',*,*,#397,.T.);
#534=ORIENTED_EDGE('',*,*,#417,.F.);
#535=ORIENTED_EDGE('',*,*,#416,.T.);
#536=ORIENTED_EDGE('',*,*,#418,.F.);
#537=ORIENTED_EDGE('',*,*,#419,.F.);
#538=ORIENTED_EDGE('',*,*,#420,.F.);
#539=ORIENTED_EDGE('',*,*,#419,.T.);
#540=ORIENTED_EDGE('',*,*,#421,.F.);
#541=ORIENTED_EDGE('',*,*,#422,.F.);
#542=ORIENTED_EDGE('',*,*,#395,.T.);
#543=ORIENTED_EDGE('',*,*,#423,.F.);
#544=ORIENTED_EDGE('',*,*,#422,.T.);
#545=ORIENTED_EDGE('',*,*,#424,.F.);
#546=ORIENTED_EDGE('',*,*,#414,.F.);
#547=ORIENTED_EDGE('',*,*,#424,.T.);
#548=ORIENTED_EDGE('',*,*,#421,.T.);
#549=ORIENTED_EDGE('',*,*,#418,.T.);
#550=ORIENTED_EDGE('',*,*,#415,.T.);
#551=ORIENTED_EDGE('',*,*,#425,.F.);
#552=ORIENTED_EDGE('',*,*,#426,.T.);
#553=ORIENTED_EDGE('',*,*,#427,.T.);
#554=ORIENTED_EDGE('',*,*,#426,.F.);
#555=ORIENTED_EDGE('',*,*,#428,.F.);
#556=ORIENTED_EDGE('',*,*,#429,.T.);
#557=ORIENTED_EDGE('',*,*,#430,.T.);
#558=ORIENTED_EDGE('',*,*,#429,.F.);
#559=ORIENTED_EDGE('',*,*,#431,.F.);
#560=ORIENTED_EDGE('',*,*,#432,.T.);
#561=ORIENTED_EDGE('',*,*,#433,.T.);
#562=ORIENTED_EDGE('',*,*,#432,.F.);
#563=ORIENTED_EDGE('',*,*,#434,.F.);
#564=ORIENTED_EDGE('',*,*,#435,.T.);
#565=ORIENTED_EDGE('',*,*,#436,.T.);
#566=ORIENTED_EDGE('',*,*,#435,.F.);
#567=ORIENTED_EDGE('',*,*,#437,.F.);
#568=ORIENTED_EDGE('',*,*,#438,.T.);
#569=ORIENTED_EDGE('',*,*,#439,.F.);
#570=ORIENTED_EDGE('',*,*,#440,.F.);
#571=ORIENTED_EDGE('',*,*,#441,.F.);
#572=ORIENTED_EDGE('',*,*,#440,.T.);
#573=ORIENTED_EDGE('',*,*,#442,.F.);
#574=ORIENTED_EDGE('',*,*,#443,.F.);
#575=ORIENTED_EDGE('',*,*,#444,.F.);
#576=ORIENTED_EDGE('',*,*,#443,.T.);
#577=ORIENTED_EDGE('',*,*,#445,.F.);
#578=ORIENTED_EDGE('',*,*,#446,.F.);
#579=ORIENTED_EDGE('',*,*,#447,.F.);
#580=ORIENTED_EDGE('',*,*,#446,.T.);
#581=ORIENTED_EDGE('',*,*,#448,.F.);
#582=ORIENTED_EDGE('',*,*,#438,.F.);
#583=ORIENTED_EDGE('',*,*,#448,.T.);
#584=ORIENTED_EDGE('',*,*,#445,.T.);
#585=ORIENTED_EDGE('',*,*,#442,.T.);
#586=ORIENTED_EDGE('',*,*,#439,.T.);
#587=ORIENTED_EDGE('',*,*,#434,.T.);
#588=ORIENTED_EDGE('',*,*,#431,.T.);
#589=ORIENTED_EDGE('',*,*,#428,.T.);
#590=ORIENTED_EDGE('',*,*,#425,.T.);
#591=ORIENTED_EDGE('',*,*,#447,.T.);
#592=ORIENTED_EDGE('',*,*,#437,.T.);
#593=ORIENTED_EDGE('',*,*,#441,.T.);
#594=ORIENTED_EDGE('',*,*,#444,.T.);
#595=ORIENTED_EDGE('',*,*,#371,.T.);
#596=ORIENTED_EDGE('',*,*,#374,.T.);
#597=ORIENTED_EDGE('',*,*,#377,.T.);
#598=ORIENTED_EDGE('',*,*,#380,.T.);
#599=ORIENTED_EDGE('',*,*,#383,.T.);
#600=ORIENTED_EDGE('',*,*,#386,.T.);
#601=ORIENTED_EDGE('',*,*,#389,.T.);
#602=ORIENTED_EDGE('',*,*,#392,.T.);
#603=ORIENTED_EDGE('',*,*,#401,.T.);
#604=ORIENTED_EDGE('',*,*,#405,.T.);
#605=ORIENTED_EDGE('',*,*,#408,.T.);
#606=ORIENTED_EDGE('',*,*,#411,.T.);
#607=ORIENTED_EDGE('',*,*,#413,.T.);
#608=ORIENTED_EDGE('',*,*,#417,.T.);
#609=ORIENTED_EDGE('',*,*,#420,.T.);
#610=ORIENTED_EDGE('',*,*,#423,.T.);
#611=ORIENTED_EDGE('',*,*,#436,.F.);
#612=ORIENTED_EDGE('',*,*,#433,.F.);
#613=ORIENTED_EDGE('',*,*,#430,.F.);
#614=ORIENTED_EDGE('',*,*,#427,.F.);
#615=ORIENTED_EDGE('',*,*,#368,.T.);
#616=ORIENTED_EDGE('',*,*,#365,.T.);
#617=CYLINDRICAL_SURFACE('',#689,1.465);
#618=CYLINDRICAL_SURFACE('',#693,1.465);
#619=CYLINDRICAL_SURFACE('',#697,1.2645);
#620=CYLINDRICAL_SURFACE('',#701,1.2645);
#621=CYLINDRICAL_SURFACE('',#705,1.2645);
#622=CYLINDRICAL_SURFACE('',#709,1.2645);
#623=CYLINDRICAL_SURFACE('',#713,1.2645);
#624=CYLINDRICAL_SURFACE('',#717,1.2645);
#625=CYLINDRICAL_SURFACE('',#721,1.2645);
#626=CYLINDRICAL_SURFACE('',#725,1.2645);
#627=CYLINDRICAL_SURFACE('',#729,1.666);
#628=CYLINDRICAL_SURFACE('',#732,1.666);
#629=CYLINDRICAL_SURFACE('',#745,4.263);
#630=CYLINDRICAL_SURFACE('',#748,4.263);
#631=CYLINDRICAL_SURFACE('',#751,4.263);
#632=CYLINDRICAL_SURFACE('',#754,4.263);
#633=ADVANCED_FACE('',(#65),#617,.F.);
#634=ADVANCED_FACE('',(#66),#39,.F.);
#635=ADVANCED_FACE('',(#67),#618,.F.);
#636=ADVANCED_FACE('',(#68),#40,.F.);
#637=ADVANCED_FACE('',(#69),#619,.F.);
#638=ADVANCED_FACE('',(#70),#41,.F.);
#639=ADVANCED_FACE('',(#71),#620,.F.);
#640=ADVANCED_FACE('',(#72),#42,.F.);
#641=ADVANCED_FACE('',(#73),#621,.F.);
#642=ADVANCED_FACE('',(#74),#43,.F.);
#643=ADVANCED_FACE('',(#75),#622,.F.);
#644=ADVANCED_FACE('',(#76),#44,.F.);
#645=ADVANCED_FACE('',(#77),#623,.F.);
#646=ADVANCED_FACE('',(#78),#45,.F.);
#647=ADVANCED_FACE('',(#79),#624,.F.);
#648=ADVANCED_FACE('',(#80),#46,.F.);
#649=ADVANCED_FACE('',(#81),#625,.F.);
#650=ADVANCED_FACE('',(#82),#47,.F.);
#651=ADVANCED_FACE('',(#83),#626,.F.);
#652=ADVANCED_FACE('',(#84),#48,.F.);
#653=ADVANCED_FACE('',(#85),#627,.F.);
#654=ADVANCED_FACE('',(#86),#628,.F.);
#655=ADVANCED_FACE('',(#87,#15),#49,.T.);
#656=ADVANCED_FACE('',(#88),#50,.T.);
#657=ADVANCED_FACE('',(#89,#16),#51,.T.);
#658=ADVANCED_FACE('',(#90),#52,.T.);
#659=ADVANCED_FACE('',(#91),#53,.T.);
#660=ADVANCED_FACE('',(#92,#17),#54,.T.);
#661=ADVANCED_FACE('',(#93),#55,.T.);
#662=ADVANCED_FACE('',(#94,#18),#56,.T.);
#663=ADVANCED_FACE('',(#95),#57,.T.);
#664=ADVANCED_FACE('',(#96),#58,.T.);
#665=ADVANCED_FACE('',(#97),#629,.F.);
#666=ADVANCED_FACE('',(#98),#630,.F.);
#667=ADVANCED_FACE('',(#99),#631,.F.);
#668=ADVANCED_FACE('',(#100),#632,.F.);
#669=ADVANCED_FACE('',(#101),#59,.T.);
#670=ADVANCED_FACE('',(#102),#60,.T.);
#671=ADVANCED_FACE('',(#103),#61,.T.);
#672=ADVANCED_FACE('',(#104),#62,.T.);
#673=ADVANCED_FACE('',(#105,#19,#20,#21,#22),#63,.T.);
#674=ADVANCED_FACE('',(#106,#23,#24,#25,#26,#27,#28,#29,#30,#31,#32,#33,
#34,#35,#36,#37,#38),#64,.F.);
#675=CLOSED_SHELL('',(#633,#634,#635,#636,#637,#638,#639,#640,#641,#642,
#643,#644,#645,#646,#647,#648,#649,#650,#651,#652,#653,#654,#655,#656,#657,
#658,#659,#660,#661,#662,#663,#664,#665,#666,#667,#668,#669,#670,#671,#672,
#673,#674));
#676=DERIVED_UNIT_ELEMENT(#678,1.);
#677=DERIVED_UNIT_ELEMENT(#1153,-3.);
#678=(
MASS_UNIT()
NAMED_UNIT(*)
SI_UNIT(.KILO.,.GRAM.)
);
#679=DERIVED_UNIT((#676,#677));
#680=MEASURE_REPRESENTATION_ITEM('density measure',
POSITIVE_RATIO_MEASURE(7850.),#679);
#681=PROPERTY_DEFINITION_REPRESENTATION(#686,#683);
#682=PROPERTY_DEFINITION_REPRESENTATION(#687,#684);
#683=REPRESENTATION('material name',(#685),#1150);
#684=REPRESENTATION('density',(#680),#1150);
#685=DESCRIPTIVE_REPRESENTATION_ITEM('Steel','Steel');
#686=PROPERTY_DEFINITION('material property','material name',#1160);
#687=PROPERTY_DEFINITION('material property','density of part',#1160);
#688=AXIS2_PLACEMENT_3D('',#965,#763,#764);
#689=AXIS2_PLACEMENT_3D('',#966,#765,#766);
#690=AXIS2_PLACEMENT_3D('',#968,#767,#768);
#691=AXIS2_PLACEMENT_3D('',#971,#770,#771);
#692=AXIS2_PLACEMENT_3D('',#972,#772,#773);
#693=AXIS2_PLACEMENT_3D('',#973,#774,#775);
#694=AXIS2_PLACEMENT_3D('',#975,#776,#777);
#695=AXIS2_PLACEMENT_3D('',#978,#779,#780);
#696=AXIS2_PLACEMENT_3D('',#979,#781,#782);
#697=AXIS2_PLACEMENT_3D('',#980,#783,#784);
#698=AXIS2_PLACEMENT_3D('',#982,#785,#786);
#699=AXIS2_PLACEMENT_3D('',#985,#788,#789);
#700=AXIS2_PLACEMENT_3D('',#986,#790,#791);
#701=AXIS2_PLACEMENT_3D('',#987,#792,#793);
#702=AXIS2_PLACEMENT_3D('',#989,#794,#795);
#703=AXIS2_PLACEMENT_3D('',#992,#797,#798);
#704=AXIS2_PLACEMENT_3D('',#993,#799,#800);
#705=AXIS2_PLACEMENT_3D('',#994,#801,#802);
#706=AXIS2_PLACEMENT_3D('',#996,#803,#804);
#707=AXIS2_PLACEMENT_3D('',#999,#806,#807);
#708=AXIS2_PLACEMENT_3D('',#1000,#808,#809);
#709=AXIS2_PLACEMENT_3D('',#1001,#810,#811);
#710=AXIS2_PLACEMENT_3D('',#1003,#812,#813);
#711=AXIS2_PLACEMENT_3D('',#1006,#815,#816);
#712=AXIS2_PLACEMENT_3D('',#1007,#817,#818);
#713=AXIS2_PLACEMENT_3D('',#1008,#819,#820);
#714=AXIS2_PLACEMENT_3D('',#1010,#821,#822);
#715=AXIS2_PLACEMENT_3D('',#1013,#824,#825);
#716=AXIS2_PLACEMENT_3D('',#1014,#826,#827);
#717=AXIS2_PLACEMENT_3D('',#1015,#828,#829);
#718=AXIS2_PLACEMENT_3D('',#1017,#830,#831);
#719=AXIS2_PLACEMENT_3D('',#1020,#833,#834);
#720=AXIS2_PLACEMENT_3D('',#1021,#835,#836);
#721=AXIS2_PLACEMENT_3D('',#1022,#837,#838);
#722=AXIS2_PLACEMENT_3D('',#1024,#839,#840);
#723=AXIS2_PLACEMENT_3D('',#1027,#842,#843);
#724=AXIS2_PLACEMENT_3D('',#1028,#844,#845);
#725=AXIS2_PLACEMENT_3D('',#1029,#846,#847);
#726=AXIS2_PLACEMENT_3D('',#1031,#848,#849);
#727=AXIS2_PLACEMENT_3D('',#1034,#851,#852);
#728=AXIS2_PLACEMENT_3D('',#1035,#853,#854);
#729=AXIS2_PLACEMENT_3D('',#1036,#855,#856);
#730=AXIS2_PLACEMENT_3D('',#1038,#857,#858);
#731=AXIS2_PLACEMENT_3D('',#1041,#860,#861);
#732=AXIS2_PLACEMENT_3D('',#1042,#862,#863);
#733=AXIS2_PLACEMENT_3D('',#1044,#864,#865);
#734=AXIS2_PLACEMENT_3D('',#1047,#867,#868);
#735=AXIS2_PLACEMENT_3D('',#1048,#869,#870);
#736=AXIS2_PLACEMENT_3D('',#1057,#875,#876);
#737=AXIS2_PLACEMENT_3D('',#1063,#880,#881);
#738=AXIS2_PLACEMENT_3D('',#1069,#885,#886);
#739=AXIS2_PLACEMENT_3D('',#1072,#889,#890);
#740=AXIS2_PLACEMENT_3D('',#1073,#891,#892);
#741=AXIS2_PLACEMENT_3D('',#1082,#897,#898);
#742=AXIS2_PLACEMENT_3D('',#1088,#902,#903);
#743=AXIS2_PLACEMENT_3D('',#1094,#907,#908);
#744=AXIS2_PLACEMENT_3D('',#1097,#911,#912);
#745=AXIS2_PLACEMENT_3D('',#1098,#913,#914);
#746=AXIS2_PLACEMENT_3D('',#1100,#915,#916);
#747=AXIS2_PLACEMENT_3D('',#1103,#918,#919);
#748=AXIS2_PLACEMENT_3D('',#1104,#920,#921);
#749=AXIS2_PLACEMENT_3D('',#1106,#922,#923);
#750=AXIS2_PLACEMENT_3D('',#1109,#925,#926);
#751=AXIS2_PLACEMENT_3D('',#1110,#927,#928);
#752=AXIS2_PLACEMENT_3D('',#1112,#929,#930);
#753=AXIS2_PLACEMENT_3D('',#1115,#932,#933);
#754=AXIS2_PLACEMENT_3D('',#1116,#934,#935);
#755=AXIS2_PLACEMENT_3D('',#1118,#936,#937);
#756=AXIS2_PLACEMENT_3D('',#1121,#939,#940);
#757=AXIS2_PLACEMENT_3D('',#1122,#941,#942);
#758=AXIS2_PLACEMENT_3D('',#1131,#947,#948);
#759=AXIS2_PLACEMENT_3D('',#1137,#952,#953);
#760=AXIS2_PLACEMENT_3D('',#1143,#957,#958);
#761=AXIS2_PLACEMENT_3D('',#1146,#961,#962);
#762=AXIS2_PLACEMENT_3D('',#1147,#963,#964);
#763=DIRECTION('axis',(0.,0.,1.));
#764=DIRECTION('refdir',(1.,0.,0.));
#765=DIRECTION('center_axis',(0.,0.,1.));
#766=DIRECTION('ref_axis',(1.,0.,0.));
#767=DIRECTION('center_axis',(0.,0.,-1.));
#768=DIRECTION('ref_axis',(1.,0.,0.));
#769=DIRECTION('',(0.,0.,1.));
#770=DIRECTION('center_axis',(0.,0.,-1.));
#771=DIRECTION('ref_axis',(1.,0.,0.));
#772=DIRECTION('center_axis',(0.,0.,1.));
#773=DIRECTION('ref_axis',(1.,0.,0.));
#774=DIRECTION('center_axis',(0.,0.,1.));
#775=DIRECTION('ref_axis',(1.,0.,0.));
#776=DIRECTION('center_axis',(0.,0.,-1.));
#777=DIRECTION('ref_axis',(1.,0.,0.));
#778=DIRECTION('',(0.,0.,1.));
#779=DIRECTION('center_axis',(0.,0.,-1.));
#780=DIRECTION('ref_axis',(1.,0.,0.));
#781=DIRECTION('center_axis',(0.,0.,1.));
#782=DIRECTION('ref_axis',(1.,0.,0.));
#783=DIRECTION('center_axis',(0.,0.,1.));
#784=DIRECTION('ref_axis',(1.,0.,0.));
#785=DIRECTION('center_axis',(0.,0.,-1.));
#786=DIRECTION('ref_axis',(1.,0.,0.));
#787=DIRECTION('',(0.,0.,1.));
#788=DIRECTION('center_axis',(0.,0.,-1.));
#789=DIRECTION('ref_axis',(1.,0.,0.));
#790=DIRECTION('center_axis',(0.,0.,1.));
#791=DIRECTION('ref_axis',(1.,0.,0.));
#792=DIRECTION('center_axis',(0.,0.,1.));
#793=DIRECTION('ref_axis',(1.,0.,0.));
#794=DIRECTION('center_axis',(0.,0.,-1.));
#795=DIRECTION('ref_axis',(1.,0.,0.));
#796=DIRECTION('',(0.,0.,1.));
#797=DIRECTION('center_axis',(0.,0.,-1.));
#798=DIRECTION('ref_axis',(1.,0.,0.));
#799=DIRECTION('center_axis',(0.,0.,1.));
#800=DIRECTION('ref_axis',(1.,0.,0.));
#801=DIRECTION('center_axis',(0.,0.,1.));
#802=DIRECTION('ref_axis',(1.,0.,0.));
#803=DIRECTION('center_axis',(0.,0.,-1.));
#804=DIRECTION('ref_axis',(1.,0.,0.));
#805=DIRECTION('',(0.,0.,1.));
#806=DIRECTION('center_axis',(0.,0.,-1.));
#807=DIRECTION('ref_axis',(1.,0.,0.));
#808=DIRECTION('center_axis',(0.,0.,1.));
#809=DIRECTION('ref_axis',(1.,0.,0.));
#810=DIRECTION('center_axis',(0.,0.,1.));
#811=DIRECTION('ref_axis',(1.,0.,0.));
#812=DIRECTION('center_axis',(0.,0.,-1.));
#813=DIRECTION('ref_axis',(1.,0.,0.));
#814=DIRECTION('',(0.,0.,1.));
#815=DIRECTION('center_axis',(0.,0.,-1.));
#816=DIRECTION('ref_axis',(1.,0.,0.));
#817=DIRECTION('center_axis',(0.,0.,1.));
#818=DIRECTION('ref_axis',(1.,0.,0.));
#819=DIRECTION('center_axis',(0.,0.,1.));
#820=DIRECTION('ref_axis',(1.,0.,0.));
#821=DIRECTION('center_axis',(0.,0.,-1.));
#822=DIRECTION('ref_axis',(1.,0.,0.));
#823=DIRECTION('',(0.,0.,1.));
#824=DIRECTION('center_axis',(0.,0.,-1.));
#825=DIRECTION('ref_axis',(1.,0.,0.));
#826=DIRECTION('center_axis',(0.,0.,1.));
#827=DIRECTION('ref_axis',(1.,0.,0.));
#828=DIRECTION('center_axis',(0.,0.,1.));
#829=DIRECTION('ref_axis',(1.,0.,0.));
#830=DIRECTION('center_axis',(0.,0.,-1.));
#831=DIRECTION('ref_axis',(1.,0.,0.));
#832=DIRECTION('',(0.,0.,1.));
#833=DIRECTION('center_axis',(0.,0.,-1.));
#834=DIRECTION('ref_axis',(1.,0.,0.));
#835=DIRECTION('center_axis',(0.,0.,1.));
#836=DIRECTION('ref_axis',(1.,0.,0.));
#837=DIRECTION('center_axis',(0.,0.,1.));
#838=DIRECTION('ref_axis',(1.,0.,0.));
#839=DIRECTION('center_axis',(0.,0.,-1.));
#840=DIRECTION('ref_axis',(1.,0.,0.));
#841=DIRECTION('',(0.,0.,1.));
#842=DIRECTION('center_axis',(0.,0.,-1.));
#843=DIRECTION('ref_axis',(1.,0.,0.));
#844=DIRECTION('center_axis',(0.,0.,1.));
#845=DIRECTION('ref_axis',(1.,0.,0.));
#846=DIRECTION('center_axis',(0.,0.,1.));
#847=DIRECTION('ref_axis',(1.,0.,0.));
#848=DIRECTION('center_axis',(0.,0.,-1.));
#849=DIRECTION('ref_axis',(1.,0.,0.));
#850=DIRECTION('',(0.,0.,1.));
#851=DIRECTION('center_axis',(0.,0.,-1.));
#852=DIRECTION('ref_axis',(1.,0.,0.));
#853=DIRECTION('center_axis',(0.,0.,1.));
#854=DIRECTION('ref_axis',(1.,0.,0.));
#855=DIRECTION('center_axis',(-1.,0.,0.));
#856=DIRECTION('ref_axis',(0.,1.,0.));
#857=DIRECTION('center_axis',(-1.,0.,0.));
#858=DIRECTION('ref_axis',(0.,1.,0.));
#859=DIRECTION('',(-1.,0.,0.));
#860=DIRECTION('center_axis',(1.,0.,0.));
#861=DIRECTION('ref_axis',(0.,1.,0.));
#862=DIRECTION('center_axis',(-1.,0.,0.));
#863=DIRECTION('ref_axis',(0.,1.,0.));
#864=DIRECTION('center_axis',(-1.,0.,0.));
#865=DIRECTION('ref_axis',(0.,1.,0.));
#866=DIRECTION('',(-1.,0.,0.));
#867=DIRECTION('center_axis',(1.,0.,0.));
#868=DIRECTION('ref_axis',(0.,1.,0.));
#869=DIRECTION('center_axis',(-1.,0.,0.));
#870=DIRECTION('ref_axis',(0.,1.,0.));
#871=DIRECTION('',(0.,-1.,0.));
#872=DIRECTION('',(0.,0.,-1.));
#873=DIRECTION('',(0.,1.,0.));
#874=DIRECTION('',(0.,0.,-1.));
#875=DIRECTION('center_axis',(0.,-1.,0.));
#876=DIRECTION('ref_axis',(-1.,0.,0.));
#877=DIRECTION('',(1.,0.,0.));
#878=DIRECTION('',(-1.,0.,0.));
#879=DIRECTION('',(0.,0.,-1.));
#880=DIRECTION('center_axis',(1.,0.,0.));
#881=DIRECTION('ref_axis',(0.,-1.,0.));
#882=DIRECTION('',(0.,1.,0.));
#883=DIRECTION('',(0.,-1.,0.));
#884=DIRECTION('',(0.,0.,-1.));
#885=DIRECTION('center_axis',(0.,1.,0.));
#886=DIRECTION('ref_axis',(1.,0.,0.));
#887=DIRECTION('',(-1.,0.,0.));
#888=DIRECTION('',(1.,0.,0.));
#889=DIRECTION('center_axis',(0.,0.,-1.));
#890=DIRECTION('ref_axis',(-1.,0.,0.));
#891=DIRECTION('center_axis',(-1.,0.,0.));
#892=DIRECTION('ref_axis',(0.,1.,0.));
#893=DIRECTION('',(0.,-1.,0.));
#894=DIRECTION('',(0.,0.,-1.));
#895=DIRECTION('',(0.,1.,0.));
#896=DIRECTION('',(0.,0.,-1.));
#897=DIRECTION('center_axis',(0.,-1.,0.));
#898=DIRECTION('ref_axis',(-1.,0.,0.));
#899=DIRECTION('',(1.,0.,0.));
#900=DIRECTION('',(-1.,0.,0.));
#901=DIRECTION('',(0.,0.,-1.));
#902=DIRECTION('center_axis',(1.,0.,0.));
#903=DIRECTION('ref_axis',(0.,-1.,0.));
#904=DIRECTION('',(0.,1.,0.));
#905=DIRECTION('',(0.,-1.,0.));
#906=DIRECTION('',(0.,0.,-1.));
#907=DIRECTION('center_axis',(0.,1.,0.));
#908=DIRECTION('ref_axis',(1.,0.,0.));
#909=DIRECTION('',(-1.,0.,0.));
#910=DIRECTION('',(1.,0.,0.));
#911=DIRECTION('center_axis',(0.,0.,-1.));
#912=DIRECTION('ref_axis',(-1.,0.,0.));
#913=DIRECTION('center_axis',(0.,0.,1.));
#914=DIRECTION('ref_axis',(1.,0.,0.));
#915=DIRECTION('center_axis',(0.,0.,1.));
#916=DIRECTION('ref_axis',(1.,0.,0.));
#917=DIRECTION('',(0.,0.,-1.));
#918=DIRECTION('center_axis',(0.,0.,1.));
#919=DIRECTION('ref_axis',(1.,0.,0.));
#920=DIRECTION('center_axis',(0.,0.,1.));
#921=DIRECTION('ref_axis',(1.,0.,0.));
#922=DIRECTION('center_axis',(0.,0.,1.));
#923=DIRECTION('ref_axis',(1.,0.,0.));
#924=DIRECTION('',(0.,0.,-1.));
#925=DIRECTION('center_axis',(0.,0.,1.));
#926=DIRECTION('ref_axis',(1.,0.,0.));
#927=DIRECTION('center_axis',(0.,0.,1.));
#928=DIRECTION('ref_axis',(1.,0.,0.));
#929=DIRECTION('center_axis',(0.,0.,1.));
#930=DIRECTION('ref_axis',(1.,0.,0.));
#931=DIRECTION('',(0.,0.,-1.));
#932=DIRECTION('center_axis',(0.,0.,1.));
#933=DIRECTION('ref_axis',(1.,0.,0.));
#934=DIRECTION('center_axis',(0.,0.,1.));
#935=DIRECTION('ref_axis',(1.,0.,0.));
#936=DIRECTION('center_axis',(0.,0.,1.));
#937=DIRECTION('ref_axis',(1.,0.,0.));
#938=DIRECTION('',(0.,0.,-1.));
#939=DIRECTION('center_axis',(0.,0.,1.));
#940=DIRECTION('ref_axis',(1.,0.,0.));
#941=DIRECTION('center_axis',(-1.,0.,0.));
#942=DIRECTION('ref_axis',(0.,-1.,0.));
#943=DIRECTION('',(0.,1.,0.));
#944=DIRECTION('',(0.,0.,1.));
#945=DIRECTION('',(0.,-1.,0.));
#946=DIRECTION('',(0.,0.,1.));
#947=DIRECTION('center_axis',(0.,1.,0.));
#948=DIRECTION('ref_axis',(-1.,0.,0.));
#949=DIRECTION('',(1.,0.,0.));
#950=DIRECTION('',(-1.,0.,0.));
#951=DIRECTION('',(0.,0.,1.));
#952=DIRECTION('center_axis',(1.,0.,0.));
#953=DIRECTION('ref_axis',(0.,1.,0.));
#954=DIRECTION('',(0.,-1.,0.));
#955=DIRECTION('',(0.,1.,0.));
#956=DIRECTION('',(0.,0.,1.));
#957=DIRECTION('center_axis',(0.,-1.,0.));
#958=DIRECTION('ref_axis',(1.,0.,0.));
#959=DIRECTION('',(-1.,0.,0.));
#960=DIRECTION('',(1.,0.,0.));
#961=DIRECTION('center_axis',(0.,0.,1.));
#962=DIRECTION('ref_axis',(1.,0.,0.));
#963=DIRECTION('center_axis',(0.,0.,1.));
#964=DIRECTION('ref_axis',(1.,0.,0.));
#965=CARTESIAN_POINT('',(0.,0.,0.));
#966=CARTESIAN_POINT('Origin',(130.000001937151,-355.000005289912,0.));
#967=CARTESIAN_POINT('',(128.535001937151,-355.000005289912,0.));
#968=CARTESIAN_POINT('Origin',(130.000001937151,-355.000005289912,0.));
#969=CARTESIAN_POINT('',(128.535001937151,-355.000005289912,3.));
#970=CARTESIAN_POINT('',(128.535001937151,-355.000005289912,0.));
#971=CARTESIAN_POINT('Origin',(130.000001937151,-355.000005289912,3.));
#972=CARTESIAN_POINT('Origin',(130.000001937151,-355.000005289912,3.));
#973=CARTESIAN_POINT('Origin',(130.000001937151,-374.488275242588,0.));
#974=CARTESIAN_POINT('',(128.535001937151,-374.488275242588,0.));
#975=CARTESIAN_POINT('Origin',(130.000001937151,-374.488275242588,0.));
#976=CARTESIAN_POINT('',(128.535001937151,-374.488275242588,3.));
#977=CARTESIAN_POINT('',(128.535001937151,-374.488275242588,0.));
#978=CARTESIAN_POINT('Origin',(130.000001937151,-374.488275242588,3.));
#979=CARTESIAN_POINT('Origin',(130.000001937151,-374.488275242588,3.));
#980=CARTESIAN_POINT('Origin',(198.623411035995,-271.321708468231,0.));
#981=CARTESIAN_POINT('',(197.358911035995,-271.321708468231,0.));
#982=CARTESIAN_POINT('Origin',(198.623411035995,-271.321708468231,0.));
#983=CARTESIAN_POINT('',(197.358911035995,-271.321708468231,10.));
#984=CARTESIAN_POINT('',(197.358911035995,-271.321708468231,0.));
#985=CARTESIAN_POINT('Origin',(198.623411035995,-271.321708468231,10.));
#986=CARTESIAN_POINT('Origin',(198.623411035995,-271.321708468231,10.));
#987=CARTESIAN_POINT('Origin',(112.627740119347,-273.692874809342,0.));
#988=CARTESIAN_POINT('',(111.363240119347,-273.692874809342,0.));
#989=CARTESIAN_POINT('Origin',(112.627740119347,-273.692874809342,0.));
#990=CARTESIAN_POINT('',(111.363240119347,-273.692874809342,10.));
#991=CARTESIAN_POINT('',(111.363240119347,-273.692874809342,0.));
#992=CARTESIAN_POINT('Origin',(112.627740119347,-273.692874809342,10.));
#993=CARTESIAN_POINT('Origin',(112.627740119347,-273.692874809342,10.));
#994=CARTESIAN_POINT('Origin',(79.6415317172127,-325.832908730608,0.));
#995=CARTESIAN_POINT('',(78.3770317172127,-325.832908730608,0.));
#996=CARTESIAN_POINT('Origin',(79.6415317172127,-325.832908730608,0.));
#997=CARTESIAN_POINT('',(78.3770317172127,-325.832908730608,10.));
#998=CARTESIAN_POINT('',(78.3770317172127,-325.832908730608,0.));
#999=CARTESIAN_POINT('Origin',(79.6415317172127,-325.832908730608,10.));
#1000=CARTESIAN_POINT('Origin',(79.6415317172127,-325.832908730608,10.));
#1001=CARTESIAN_POINT('Origin',(198.599995560944,-307.999993115664,0.));
#1002=CARTESIAN_POINT('',(197.335495560944,-307.999993115664,0.));
#1003=CARTESIAN_POINT('Origin',(198.599995560944,-307.999993115664,0.));
#1004=CARTESIAN_POINT('',(197.335495560944,-307.999993115664,10.));
#1005=CARTESIAN_POINT('',(197.335495560944,-307.999993115664,0.));
#1006=CARTESIAN_POINT('Origin',(198.599995560944,-307.999993115664,10.));
#1007=CARTESIAN_POINT('Origin',(198.599995560944,-307.999993115664,10.));
#1008=CARTESIAN_POINT('Origin',(161.899996381253,-271.299993935972,0.));
#1009=CARTESIAN_POINT('',(160.635496381253,-271.299993935972,0.));
#1010=CARTESIAN_POINT('Origin',(161.899996381253,-271.299993935972,0.));
#1011=CARTESIAN_POINT('',(160.635496381253,-271.299993935972,10.));
#1012=CARTESIAN_POINT('',(160.635496381253,-271.299993935972,0.));
#1013=CARTESIAN_POINT('Origin',(161.899996381253,-271.299993935972,10.));
#1014=CARTESIAN_POINT('Origin',(161.899996381253,-271.299993935972,10.));
#1015=CARTESIAN_POINT('Origin',(64.3651143544075,-274.947976093766,0.));
#1016=CARTESIAN_POINT('',(63.1006143544075,-274.947976093766,0.));
#1017=CARTESIAN_POINT('Origin',(64.3651143544075,-274.947976093766,0.));
#1018=CARTESIAN_POINT('',(63.1006143544075,-274.947976093766,10.));
#1019=CARTESIAN_POINT('',(63.1006143544075,-274.947976093766,0.));
#1020=CARTESIAN_POINT('Origin',(64.3651143544075,-274.947976093766,10.));
#1021=CARTESIAN_POINT('Origin',(64.3651143544075,-274.947976093766,10.));
#1022=CARTESIAN_POINT('Origin',(107.560311239305,-325.832908730608,0.));
#1023=CARTESIAN_POINT('',(106.295811239305,-325.832908730608,0.));
#1024=CARTESIAN_POINT('Origin',(107.560311239305,-325.832908730608,0.));
#1025=CARTESIAN_POINT('',(106.295811239305,-325.832908730608,10.));
#1026=CARTESIAN_POINT('',(106.295811239305,-325.832908730608,0.));
#1027=CARTESIAN_POINT('Origin',(107.560311239305,-325.832908730608,10.));
#1028=CARTESIAN_POINT('Origin',(107.560311239305,-325.832908730608,10.));
#1029=CARTESIAN_POINT('Origin',(161.966149833094,-308.041419122504,0.));
#1030=CARTESIAN_POINT('',(160.701649833094,-308.041419122504,0.));
#1031=CARTESIAN_POINT('Origin',(161.966149833094,-308.041419122504,0.));
#1032=CARTESIAN_POINT('',(160.701649833094,-308.041419122504,10.));
#1033=CARTESIAN_POINT('',(160.701649833094,-308.041419122504,0.));
#1034=CARTESIAN_POINT('Origin',(161.966149833094,-308.041419122504,10.));
#1035=CARTESIAN_POINT('Origin',(161.966149833094,-308.041419122504,10.));
#1036=CARTESIAN_POINT('Origin',(260.257376417376,-307.356629836645,-25.7360121676004));
#1037=CARTESIAN_POINT('',(260.229161748524,-309.022629836645,-25.7360121676004));
#1038=CARTESIAN_POINT('Origin',(260.229161748524,-307.356629836645,-25.7360121676004));
#1039=CARTESIAN_POINT('',(253.329035644474,-309.022629836645,-25.7360121676004));
#1040=CARTESIAN_POINT('',(260.257376417376,-309.022629836645,-25.7360121676004));
#1041=CARTESIAN_POINT('Origin',(253.329035644474,-307.356629836645,-25.7360121676004));
#1042=CARTESIAN_POINT('Origin',(260.257376417376,-272.490258490668,-25.5942181104863));
#1043=CARTESIAN_POINT('',(260.257376417376,-274.156258490668,-25.5942181104863));
#1044=CARTESIAN_POINT('Origin',(260.257376417376,-272.490258490668,-25.5942181104863));
#1045=CARTESIAN_POINT('',(253.329035644474,-274.156258490668,-25.5942181104863));
#1046=CARTESIAN_POINT('',(260.257376417376,-274.156258490668,-25.5942181104863));
#1047=CARTESIAN_POINT('Origin',(253.329035644474,-272.490258490668,-25.5942181104863));
#1048=CARTESIAN_POINT('Origin',(253.329035644474,-275.56485076009,0.));
#1049=CARTESIAN_POINT('',(253.329035644474,-264.627474610868,0.));
#1050=CARTESIAN_POINT('',(253.329035644474,-275.56485076009,0.));
#1051=CARTESIAN_POINT('',(253.329035644474,-285.282425380045,0.));
#1052=CARTESIAN_POINT('',(253.329035644474,-264.627474610868,-35.));
#1053=CARTESIAN_POINT('',(253.329035644474,-264.627474610868,0.));
#1054=CARTESIAN_POINT('',(253.329035644474,-275.56485076009,-35.));
#1055=CARTESIAN_POINT('',(253.329035644474,-275.56485076009,-35.));
#1056=CARTESIAN_POINT('',(253.329035644474,-275.56485076009,0.));
#1057=CARTESIAN_POINT('Origin',(260.257376417376,-275.56485076009,0.));
#1058=CARTESIAN_POINT('',(260.257376417376,-275.56485076009,0.));
#1059=CARTESIAN_POINT('',(277.628688208688,-275.56485076009,0.));
#1060=CARTESIAN_POINT('',(260.257376417376,-275.56485076009,-35.));
#1061=CARTESIAN_POINT('',(260.257376417376,-275.56485076009,-35.));
#1062=CARTESIAN_POINT('',(260.257376417376,-275.56485076009,0.));
#1063=CARTESIAN_POINT('Origin',(260.257376417376,-264.627474610868,0.));
#1064=CARTESIAN_POINT('',(260.257376417376,-264.627474610868,0.));
#1065=CARTESIAN_POINT('',(260.257376417376,-279.813737305434,0.));
#1066=CARTESIAN_POINT('',(260.257376417376,-264.627474610868,-35.));
#1067=CARTESIAN_POINT('',(260.257376417376,-264.627474610868,-35.));
#1068=CARTESIAN_POINT('',(260.257376417376,-264.627474610868,0.));
#1069=CARTESIAN_POINT('Origin',(253.329035644474,-264.627474610868,0.));
#1070=CARTESIAN_POINT('',(274.164517822237,-264.627474610868,0.));
#1071=CARTESIAN_POINT('',(253.329035644474,-264.627474610868,-35.));
#1072=CARTESIAN_POINT('Origin',(256.793206030925,-270.096162685479,-35.));
#1073=CARTESIAN_POINT('Origin',(253.329035644474,-313.523285731607,0.));
#1074=CARTESIAN_POINT('',(253.329035644474,-304.389170373878,0.));
#1075=CARTESIAN_POINT('',(253.329035644474,-313.523285731607,0.));
#1076=CARTESIAN_POINT('',(253.329035644474,-304.261642865803,0.));
#1077=CARTESIAN_POINT('',(253.329035644474,-304.389170373878,-35.));
#1078=CARTESIAN_POINT('',(253.329035644474,-304.389170373878,0.));
#1079=CARTESIAN_POINT('',(253.329035644474,-313.523285731607,-35.));
#1080=CARTESIAN_POINT('',(253.329035644474,-313.523285731607,-35.));
#1081=CARTESIAN_POINT('',(253.329035644474,-313.523285731607,0.));
#1082=CARTESIAN_POINT('Origin',(260.229161748524,-313.523285731607,0.));
#1083=CARTESIAN_POINT('',(260.229161748524,-313.523285731607,0.));
#1084=CARTESIAN_POINT('',(277.614580874262,-313.523285731607,0.));
#1085=CARTESIAN_POINT('',(260.229161748524,-313.523285731607,-35.));
#1086=CARTESIAN_POINT('',(260.229161748524,-313.523285731607,-35.));
#1087=CARTESIAN_POINT('',(260.229161748524,-313.523285731607,0.));
#1088=CARTESIAN_POINT('Origin',(260.229161748524,-304.389170373878,0.));
#1089=CARTESIAN_POINT('',(260.229161748524,-304.389170373878,0.));
#1090=CARTESIAN_POINT('',(260.229161748524,-299.694585186939,0.));
#1091=CARTESIAN_POINT('',(260.229161748524,-304.389170373878,-35.));
#1092=CARTESIAN_POINT('',(260.229161748524,-304.389170373878,-35.));
#1093=CARTESIAN_POINT('',(260.229161748524,-304.389170373878,0.));
#1094=CARTESIAN_POINT('Origin',(253.329035644474,-304.389170373878,0.));
#1095=CARTESIAN_POINT('',(274.164517822237,-304.389170373878,0.));
#1096=CARTESIAN_POINT('',(253.329035644474,-304.389170373878,-35.));
#1097=CARTESIAN_POINT('Origin',(256.779098696499,-308.956228052742,-35.));
#1098=CARTESIAN_POINT('Origin',(582.,-582.,0.));
#1099=CARTESIAN_POINT('',(577.737,-582.,50.));
#1100=CARTESIAN_POINT('Origin',(582.,-582.,50.));
#1101=CARTESIAN_POINT('',(577.737,-582.,0.));
#1102=CARTESIAN_POINT('',(577.737,-582.,0.));
#1103=CARTESIAN_POINT('Origin',(582.,-582.,0.));
#1104=CARTESIAN_POINT('Origin',(582.,-8.,0.));
#1105=CARTESIAN_POINT('',(577.737,-8.,50.));
#1106=CARTESIAN_POINT('Origin',(582.,-8.,50.));
#1107=CARTESIAN_POINT('',(577.737,-8.,0.));
#1108=CARTESIAN_POINT('',(577.737,-8.,0.));
#1109=CARTESIAN_POINT('Origin',(582.,-8.,0.));
#1110=CARTESIAN_POINT('Origin',(8.,-582.,0.));
#1111=CARTESIAN_POINT('',(3.737,-582.,50.));
#1112=CARTESIAN_POINT('Origin',(8.,-582.,50.));
#1113=CARTESIAN_POINT('',(3.737,-582.,0.));
#1114=CARTESIAN_POINT('',(3.737,-582.,0.));
#1115=CARTESIAN_POINT('Origin',(8.,-582.,0.));
#1116=CARTESIAN_POINT('Origin',(8.,-8.,0.));
#1117=CARTESIAN_POINT('',(3.737,-8.,50.));
#1118=CARTESIAN_POINT('Origin',(8.,-8.,50.));
#1119=CARTESIAN_POINT('',(3.737,-8.,0.));
#1120=CARTESIAN_POINT('',(3.737,-8.,0.));
#1121=CARTESIAN_POINT('Origin',(8.,-8.,0.));
#1122=CARTESIAN_POINT('Origin',(0.,0.,0.));
#1123=CARTESIAN_POINT('',(0.,-590.,0.));
#1124=CARTESIAN_POINT('',(0.,0.,0.));
#1125=CARTESIAN_POINT('',(0.,-590.,0.));
#1126=CARTESIAN_POINT('',(0.,-590.,50.));
#1127=CARTESIAN_POINT('',(0.,-590.,0.));
#1128=CARTESIAN_POINT('',(0.,0.,50.));
#1129=CARTESIAN_POINT('',(0.,-590.,50.));
#1130=CARTESIAN_POINT('',(0.,0.,0.));
#1131=CARTESIAN_POINT('Origin',(590.,0.,0.));
#1132=CARTESIAN_POINT('',(590.,0.,0.));
#1133=CARTESIAN_POINT('',(0.,0.,0.));
#1134=CARTESIAN_POINT('',(590.,0.,50.));
#1135=CARTESIAN_POINT('',(0.,0.,50.));
#1136=CARTESIAN_POINT('',(590.,0.,0.));
#1137=CARTESIAN_POINT('Origin',(590.,-590.,0.));
#1138=CARTESIAN_POINT('',(590.,-590.,0.));
#1139=CARTESIAN_POINT('',(590.,0.,0.));
#1140=CARTESIAN_POINT('',(590.,-590.,50.));
#1141=CARTESIAN_POINT('',(590.,0.,50.));
#1142=CARTESIAN_POINT('',(590.,-590.,0.));
#1143=CARTESIAN_POINT('Origin',(0.,-590.,0.));
#1144=CARTESIAN_POINT('',(590.,-590.,0.));
#1145=CARTESIAN_POINT('',(590.,-590.,50.));
#1146=CARTESIAN_POINT('Origin',(295.,-295.,50.));
#1147=CARTESIAN_POINT('Origin',(295.,-295.,0.));
#1148=UNCERTAINTY_MEASURE_WITH_UNIT(LENGTH_MEASURE(0.01),#1152,
'DISTANCE_ACCURACY_VALUE',
'Maximum model space distance between geometric entities at asserted c
onnectivities');
#1149=UNCERTAINTY_MEASURE_WITH_UNIT(LENGTH_MEASURE(0.01),#1152,
'DISTANCE_ACCURACY_VALUE',
'Maximum model space distance between geometric entities at asserted c
onnectivities');
#1150=(
GEOMETRIC_REPRESENTATION_CONTEXT(3)
GLOBAL_UNCERTAINTY_ASSIGNED_CONTEXT((#1148))
GLOBAL_UNIT_ASSIGNED_CONTEXT((#1152,#1154,#1155))
REPRESENTATION_CONTEXT('','3D')
);
#1151=(
GEOMETRIC_REPRESENTATION_CONTEXT(3)
GLOBAL_UNCERTAINTY_ASSIGNED_CONTEXT((#1149))
GLOBAL_UNIT_ASSIGNED_CONTEXT((#1152,#1154,#1155))
REPRESENTATION_CONTEXT('','3D')
);
#1152=(
LENGTH_UNIT()
NAMED_UNIT(*)
SI_UNIT(.MILLI.,.METRE.)
);
#1153=(
LENGTH_UNIT()
NAMED_UNIT(*)
SI_UNIT($,.METRE.)
);
#1154=(
NAMED_UNIT(*)
PLANE_ANGLE_UNIT()
SI_UNIT($,.RADIAN.)
);
#1155=(
NAMED_UNIT(*)
SI_UNIT($,.STERADIAN.)
SOLID_ANGLE_UNIT()
);
#1156=SHAPE_DEFINITION_REPRESENTATION(#1157,#1158);
#1157=PRODUCT_DEFINITION_SHAPE('',$,#1160);
#1158=SHAPE_REPRESENTATION('',(#688),#1150);
#1159=PRODUCT_DEFINITION_CONTEXT('part definition',#1164,'design');
#1160=PRODUCT_DEFINITION('2026-06-04-20-35-05-786','lid',#1161,#1159);
#1161=PRODUCT_DEFINITION_FORMATION('',$,#1166);
#1162=PRODUCT_RELATED_PRODUCT_CATEGORY('lid','lid',(#1166));
#1163=APPLICATION_PROTOCOL_DEFINITION('international standard',
'automotive_design',2009,#1164);
#1164=APPLICATION_CONTEXT(
'Core Data for Automotive Mechanical Design Process');
#1165=PRODUCT_CONTEXT('part definition',#1164,'mechanical');
#1166=PRODUCT('2026-06-04-20-35-05-786','lid',$,(#1165));
#1167=PRESENTATION_STYLE_ASSIGNMENT((#1168));
#1168=SURFACE_STYLE_USAGE(.BOTH.,#1169);
#1169=SURFACE_SIDE_STYLE('',(#1170));
#1170=SURFACE_STYLE_FILL_AREA(#1171);
#1171=FILL_AREA_STYLE('Steel - Satin',(#1172));
#1172=FILL_AREA_STYLE_COLOUR('Steel - Satin',#1173);
#1173=COLOUR_RGB('Steel - Satin',0.627450980392157,0.627450980392157,0.627450980392157);
ENDSEC;
END-ISO-10303-21;
