ISO-10303-21;
HEADER;
/* Generated by software containing ST-Developer
 * from STEP Tools, Inc. (www.steptools.com) 
 */

FILE_DESCRIPTION(
/* description */ (''),
/* implementation_level */ '2;1');

FILE_NAME(
/* name */ 'piston.step',
/* time_stamp */ '2026-06-12T18:22:13+01:00',
/* author */ (''),
/* organization */ (''),
/* preprocessor_version */ 'ST-DEVELOPER v20.1',
/* originating_system */ 'Autodesk Translation Framework v15.8.0.0',
/* authorisation */ '');

FILE_SCHEMA (('AUTOMOTIVE_DESIGN { 1 0 10303 214 3 1 1 }'));
ENDSEC;

DATA;
#10=MECHANICAL_DESIGN_GEOMETRIC_PRESENTATION_REPRESENTATION('',(#13),#902);
#11=SHAPE_REPRESENTATION_RELATIONSHIP('SRR','None',#909,#12);
#12=ADVANCED_BREP_SHAPE_REPRESENTATION('',(#14),#901);
#13=STYLED_ITEM('',(#918),#14);
#14=MANIFOLD_SOLID_BREP('Body1',#442);
#15=B_SPLINE_SURFACE_WITH_KNOTS('',3,3,((#669,#670,#671,#672,#673,#674,
#675,#676,#677,#678,#679,#680,#681),(#682,#683,#684,#685,#686,#687,#688,
#689,#690,#691,#692,#693,#694),(#695,#696,#697,#698,#699,#700,#701,#702,
#703,#704,#705,#706,#707),(#708,#709,#710,#711,#712,#713,#714,#715,#716,
#717,#718,#719,#720),(#721,#722,#723,#724,#725,#726,#727,#728,#729,#730,
#731,#732,#733),(#734,#735,#736,#737,#738,#739,#740,#741,#742,#743,#744,
#745,#746),(#747,#748,#749,#750,#751,#752,#753,#754,#755,#756,#757,#758,
#759),(#760,#761,#762,#763,#764,#765,#766,#767,#768,#769,#770,#771,#772),
(#773,#774,#775,#776,#777,#778,#779,#780,#781,#782,#783,#784,#785),(#786,
#787,#788,#789,#790,#791,#792,#793,#794,#795,#796,#797,#798),(#799,#800,
#801,#802,#803,#804,#805,#806,#807,#808,#809,#810,#811)),.UNSPECIFIED.,
 .T.,.F.,.F.,(4,1,1,1,1,1,1,1,4),(4,1,1,1,1,1,1,1,1,1,4),(-3.14159265358979,
-2.69279370307697,-2.24399475256414,-1.34639685153848,-0.448798950512828,
0.448798950512828,1.34639685153848,2.24399475256414,3.14159265358979),(0.,
0.142857142857143,0.285714285714286,0.428571428571429,0.5,0.571428571428571,
0.607142857142857,0.642857142857143,0.714285714285714,0.857142857142857,
1.),.UNSPECIFIED.);
#16=FACE_BOUND('',#165,.T.);
#17=FACE_BOUND('',#166,.T.);
#18=FACE_BOUND('',#177,.T.);
#19=B_SPLINE_CURVE_WITH_KNOTS('',3,(#630,#631,#632,#633,#634,#635,#636,
#637,#638,#639,#640,#641),.UNSPECIFIED.,.F.,.F.,(4,2,2,2,2,4),(0.,0.312486835050978,
0.58083322756654,0.832546692884187,1.09180564834866,1.36083865125429),
 .UNSPECIFIED.);
#20=B_SPLINE_CURVE_WITH_KNOTS('',3,(#646,#647,#648,#649,#650,#651,#652,
#653,#654,#655,#656,#657,#658,#659),.UNSPECIFIED.,.F.,.F.,(4,2,2,2,2,2,
4),(0.,0.321610050681875,0.590338399165567,0.838589233311474,1.09071644987199,
1.26207680140304,1.43938763444601),.UNSPECIFIED.);
#21=B_SPLINE_CURVE_WITH_KNOTS('',3,(#812,#813,#814,#815,#816,#817,#818,
#819,#820,#821,#822,#823,#824),.UNSPECIFIED.,.F.,.F.,(4,1,1,1,1,1,1,1,1,
1,4),(0.,0.142857142857143,0.285714285714286,0.428571428571429,0.5,0.571428571428571,
0.607142857142857,0.642857142857143,0.714285714285714,0.857142857142857,
1.),.UNSPECIFIED.);
#22=LINE('',#608,#71);
#23=LINE('',#610,#72);
#24=LINE('',#612,#73);
#25=LINE('',#614,#74);
#26=LINE('',#616,#75);
#27=LINE('',#618,#76);
#28=LINE('',#620,#77);
#29=LINE('',#622,#78);
#30=LINE('',#624,#79);
#31=LINE('',#626,#80);
#32=LINE('',#628,#81);
#33=LINE('',#629,#82);
#34=LINE('',#662,#83);
#35=LINE('',#827,#84);
#36=LINE('',#829,#85);
#37=LINE('',#830,#86);
#38=LINE('',#833,#87);
#39=LINE('',#834,#88);
#40=LINE('',#837,#89);
#41=LINE('',#838,#90);
#42=LINE('',#841,#91);
#43=LINE('',#842,#92);
#44=LINE('',#845,#93);
#45=LINE('',#846,#94);
#46=LINE('',#849,#95);
#47=LINE('',#850,#96);
#48=LINE('',#854,#97);
#49=LINE('',#856,#98);
#50=LINE('',#858,#99);
#51=LINE('',#859,#100);
#52=LINE('',#861,#101);
#53=LINE('',#863,#102);
#54=LINE('',#865,#103);
#55=LINE('',#867,#104);
#56=LINE('',#869,#105);
#57=LINE('',#870,#106);
#58=LINE('',#873,#107);
#59=LINE('',#875,#108);
#60=LINE('',#876,#109);
#61=LINE('',#879,#110);
#62=LINE('',#880,#111);
#63=LINE('',#883,#112);
#64=LINE('',#884,#113);
#65=LINE('',#886,#114);
#66=LINE('',#889,#115);
#67=LINE('',#891,#116);
#68=LINE('',#893,#117);
#69=LINE('',#895,#118);
#70=LINE('',#897,#119);
#71=VECTOR('',#498,2.5423728813);
#72=VECTOR('',#499,2.5423728813);
#73=VECTOR('',#500,2.5423728813);
#74=VECTOR('',#501,2.5423728813);
#75=VECTOR('',#502,2.5423728813);
#76=VECTOR('',#503,2.5423728813);
#77=VECTOR('',#504,2.5423728813);
#78=VECTOR('',#505,2.5423728813);
#79=VECTOR('',#506,2.5423728813);
#80=VECTOR('',#507,2.5423728813);
#81=VECTOR('',#508,2.5423728813);
#82=VECTOR('',#509,2.5423728813);
#83=VECTOR('',#514,10.);
#84=VECTOR('',#527,2.5423728813);
#85=VECTOR('',#528,2.5423728813);
#86=VECTOR('',#529,2.5423728813);
#87=VECTOR('',#532,2.5423728813);
#88=VECTOR('',#533,2.5423728813);
#89=VECTOR('',#536,2.5423728813);
#90=VECTOR('',#537,2.5423728813);
#91=VECTOR('',#540,2.5423728813);
#92=VECTOR('',#541,2.5423728813);
#93=VECTOR('',#544,2.5423728813);
#94=VECTOR('',#545,2.5423728813);
#95=VECTOR('',#548,2.5423728813);
#96=VECTOR('',#549,2.5423728813);
#97=VECTOR('',#552,2.5423728813);
#98=VECTOR('',#553,2.5423728813);
#99=VECTOR('',#554,2.5423728813);
#100=VECTOR('',#555,2.5423728813);
#101=VECTOR('',#556,2.5423728813);
#102=VECTOR('',#557,2.5423728813);
#103=VECTOR('',#558,2.5423728813);
#104=VECTOR('',#559,2.5423728813);
#105=VECTOR('',#560,2.5423728813);
#106=VECTOR('',#561,2.5423728813);
#107=VECTOR('',#564,2.5423728813);
#108=VECTOR('',#565,2.5423728813);
#109=VECTOR('',#566,2.5423728813);
#110=VECTOR('',#569,2.5423728813);
#111=VECTOR('',#570,2.5423728813);
#112=VECTOR('',#573,2.5423728813);
#113=VECTOR('',#574,2.5423728813);
#114=VECTOR('',#577,2.5423728813);
#115=VECTOR('',#582,2.5423728813);
#116=VECTOR('',#585,2.5423728813);
#117=VECTOR('',#588,2.5423728813);
#118=VECTOR('',#591,2.5423728813);
#119=VECTOR('',#594,2.5423728813);
#120=PLANE('',#460);
#121=PLANE('',#463);
#122=PLANE('',#468);
#123=PLANE('',#469);
#124=PLANE('',#470);
#125=PLANE('',#471);
#126=PLANE('',#472);
#127=PLANE('',#473);
#128=PLANE('',#474);
#129=PLANE('',#475);
#130=PLANE('',#476);
#131=PLANE('',#477);
#132=PLANE('',#478);
#133=PLANE('',#479);
#134=PLANE('',#480);
#135=PLANE('',#481);
#136=PLANE('',#482);
#137=PLANE('',#483);
#138=PLANE('',#484);
#139=PLANE('',#485);
#140=FACE_OUTER_BOUND('',#163,.T.);
#141=FACE_OUTER_BOUND('',#164,.T.);
#142=FACE_OUTER_BOUND('',#167,.T.);
#143=FACE_OUTER_BOUND('',#168,.T.);
#144=FACE_OUTER_BOUND('',#169,.T.);
#145=FACE_OUTER_BOUND('',#170,.T.);
#146=FACE_OUTER_BOUND('',#171,.T.);
#147=FACE_OUTER_BOUND('',#172,.T.);
#148=FACE_OUTER_BOUND('',#173,.T.);
#149=FACE_OUTER_BOUND('',#174,.T.);
#150=FACE_OUTER_BOUND('',#175,.T.);
#151=FACE_OUTER_BOUND('',#176,.T.);
#152=FACE_OUTER_BOUND('',#178,.T.);
#153=FACE_OUTER_BOUND('',#179,.T.);
#154=FACE_OUTER_BOUND('',#180,.T.);
#155=FACE_OUTER_BOUND('',#181,.T.);
#156=FACE_OUTER_BOUND('',#182,.T.);
#157=FACE_OUTER_BOUND('',#183,.T.);
#158=FACE_OUTER_BOUND('',#184,.T.);
#159=FACE_OUTER_BOUND('',#185,.T.);
#160=FACE_OUTER_BOUND('',#186,.T.);
#161=FACE_OUTER_BOUND('',#187,.T.);
#162=FACE_OUTER_BOUND('',#188,.T.);
#163=EDGE_LOOP('',(#297,#298,#299));
#164=EDGE_LOOP('',(#300,#301,#302,#303,#304,#305,#306,#307,#308,#309,#310,
#311));
#165=EDGE_LOOP('',(#312,#313));
#166=EDGE_LOOP('',(#314,#315,#316,#317));
#167=EDGE_LOOP('',(#318,#319));
#168=EDGE_LOOP('',(#320,#321,#322,#323,#324));
#169=EDGE_LOOP('',(#325,#326,#327,#328,#329,#330,#331,#332));
#170=EDGE_LOOP('',(#333,#334,#335,#336));
#171=EDGE_LOOP('',(#337,#338,#339,#340));
#172=EDGE_LOOP('',(#341,#342,#343,#344));
#173=EDGE_LOOP('',(#345,#346,#347,#348));
#174=EDGE_LOOP('',(#349,#350,#351,#352));
#175=EDGE_LOOP('',(#353,#354,#355,#356));
#176=EDGE_LOOP('',(#357,#358,#359,#360));
#177=EDGE_LOOP('',(#361,#362,#363,#364,#365,#366,#367,#368,#369,#370,#371,
#372));
#178=EDGE_LOOP('',(#373,#374,#375,#376));
#179=EDGE_LOOP('',(#377,#378,#379,#380));
#180=EDGE_LOOP('',(#381,#382,#383,#384));
#181=EDGE_LOOP('',(#385,#386,#387,#388));
#182=EDGE_LOOP('',(#389,#390,#391,#392));
#183=EDGE_LOOP('',(#393,#394,#395,#396));
#184=EDGE_LOOP('',(#397,#398,#399,#400));
#185=EDGE_LOOP('',(#401,#402,#403,#404));
#186=EDGE_LOOP('',(#405,#406,#407,#408));
#187=EDGE_LOOP('',(#409,#410,#411,#412));
#188=EDGE_LOOP('',(#413,#414,#415,#416));
#189=CIRCLE('',#458,1.906779660975);
#190=CIRCLE('',#459,1.906779660975);
#191=CIRCLE('',#464,1.906779660975);
#192=CIRCLE('',#466,1.906779660975);
#193=CIRCLE('',#467,1.906779660975);
#194=ELLIPSE('',#457,2.24365917698232,1.906779660975);
#195=ELLIPSE('',#461,2.29116488315803,1.906779660975);
#196=ELLIPSE('',#462,2.29116488315803,1.906779660975);
#197=VERTEX_POINT('',#599);
#198=VERTEX_POINT('',#600);
#199=VERTEX_POINT('',#602);
#200=VERTEX_POINT('',#606);
#201=VERTEX_POINT('',#607);
#202=VERTEX_POINT('',#609);
#203=VERTEX_POINT('',#611);
#204=VERTEX_POINT('',#613);
#205=VERTEX_POINT('',#615);
#206=VERTEX_POINT('',#617);
#207=VERTEX_POINT('',#619);
#208=VERTEX_POINT('',#621);
#209=VERTEX_POINT('',#623);
#210=VERTEX_POINT('',#625);
#211=VERTEX_POINT('',#627);
#212=VERTEX_POINT('',#642);
#213=VERTEX_POINT('',#643);
#214=VERTEX_POINT('',#645);
#215=VERTEX_POINT('',#660);
#216=VERTEX_POINT('',#666);
#217=VERTEX_POINT('',#826);
#218=VERTEX_POINT('',#828);
#219=VERTEX_POINT('',#832);
#220=VERTEX_POINT('',#836);
#221=VERTEX_POINT('',#840);
#222=VERTEX_POINT('',#844);
#223=VERTEX_POINT('',#848);
#224=VERTEX_POINT('',#852);
#225=VERTEX_POINT('',#853);
#226=VERTEX_POINT('',#855);
#227=VERTEX_POINT('',#857);
#228=VERTEX_POINT('',#860);
#229=VERTEX_POINT('',#862);
#230=VERTEX_POINT('',#864);
#231=VERTEX_POINT('',#866);
#232=VERTEX_POINT('',#868);
#233=VERTEX_POINT('',#872);
#234=VERTEX_POINT('',#874);
#235=VERTEX_POINT('',#878);
#236=VERTEX_POINT('',#882);
#237=EDGE_CURVE('',#197,#198,#194,.T.);
#238=EDGE_CURVE('',#197,#199,#189,.T.);
#239=EDGE_CURVE('',#199,#198,#190,.T.);
#240=EDGE_CURVE('',#200,#201,#22,.T.);
#241=EDGE_CURVE('',#202,#200,#23,.T.);
#242=EDGE_CURVE('',#203,#202,#24,.T.);
#243=EDGE_CURVE('',#204,#203,#25,.T.);
#244=EDGE_CURVE('',#205,#204,#26,.T.);
#245=EDGE_CURVE('',#206,#205,#27,.T.);
#246=EDGE_CURVE('',#207,#206,#28,.T.);
#247=EDGE_CURVE('',#208,#207,#29,.T.);
#248=EDGE_CURVE('',#209,#208,#30,.T.);
#249=EDGE_CURVE('',#210,#209,#31,.T.);
#250=EDGE_CURVE('',#211,#210,#32,.T.);
#251=EDGE_CURVE('',#201,#211,#33,.T.);
#252=EDGE_CURVE('',#198,#197,#19,.T.);
#253=EDGE_CURVE('',#212,#213,#195,.T.);
#254=EDGE_CURVE('',#213,#214,#20,.T.);
#255=EDGE_CURVE('',#214,#215,#196,.T.);
#256=EDGE_CURVE('',#215,#212,#34,.T.);
#257=EDGE_CURVE('',#215,#212,#191,.T.);
#258=EDGE_CURVE('',#216,#214,#192,.T.);
#259=EDGE_CURVE('',#213,#216,#193,.T.);
#260=EDGE_CURVE('',#216,#199,#21,.T.);
#261=EDGE_CURVE('',#205,#217,#35,.T.);
#262=EDGE_CURVE('',#218,#217,#36,.T.);
#263=EDGE_CURVE('',#206,#218,#37,.T.);
#264=EDGE_CURVE('',#204,#219,#38,.T.);
#265=EDGE_CURVE('',#217,#219,#39,.T.);
#266=EDGE_CURVE('',#203,#220,#40,.T.);
#267=EDGE_CURVE('',#219,#220,#41,.T.);
#268=EDGE_CURVE('',#202,#221,#42,.T.);
#269=EDGE_CURVE('',#220,#221,#43,.T.);
#270=EDGE_CURVE('',#200,#222,#44,.T.);
#271=EDGE_CURVE('',#221,#222,#45,.T.);
#272=EDGE_CURVE('',#201,#223,#46,.T.);
#273=EDGE_CURVE('',#222,#223,#47,.T.);
#274=EDGE_CURVE('',#224,#225,#48,.T.);
#275=EDGE_CURVE('',#225,#226,#49,.T.);
#276=EDGE_CURVE('',#226,#227,#50,.T.);
#277=EDGE_CURVE('',#227,#224,#51,.T.);
#278=EDGE_CURVE('',#223,#228,#52,.T.);
#279=EDGE_CURVE('',#228,#229,#53,.T.);
#280=EDGE_CURVE('',#229,#230,#54,.T.);
#281=EDGE_CURVE('',#230,#231,#55,.T.);
#282=EDGE_CURVE('',#231,#232,#56,.T.);
#283=EDGE_CURVE('',#232,#218,#57,.T.);
#284=EDGE_CURVE('',#225,#233,#58,.T.);
#285=EDGE_CURVE('',#234,#233,#59,.T.);
#286=EDGE_CURVE('',#226,#234,#60,.T.);
#287=EDGE_CURVE('',#235,#234,#61,.T.);
#288=EDGE_CURVE('',#227,#235,#62,.T.);
#289=EDGE_CURVE('',#236,#235,#63,.T.);
#290=EDGE_CURVE('',#224,#236,#64,.T.);
#291=EDGE_CURVE('',#233,#236,#65,.T.);
#292=EDGE_CURVE('',#207,#232,#66,.T.);
#293=EDGE_CURVE('',#208,#231,#67,.T.);
#294=EDGE_CURVE('',#209,#230,#68,.T.);
#295=EDGE_CURVE('',#210,#229,#69,.T.);
#296=EDGE_CURVE('',#211,#228,#70,.T.);
#297=ORIENTED_EDGE('',*,*,#237,.F.);
#298=ORIENTED_EDGE('',*,*,#238,.T.);
#299=ORIENTED_EDGE('',*,*,#239,.T.);
#300=ORIENTED_EDGE('',*,*,#240,.F.);
#301=ORIENTED_EDGE('',*,*,#241,.F.);
#302=ORIENTED_EDGE('',*,*,#242,.F.);
#303=ORIENTED_EDGE('',*,*,#243,.F.);
#304=ORIENTED_EDGE('',*,*,#244,.F.);
#305=ORIENTED_EDGE('',*,*,#245,.F.);
#306=ORIENTED_EDGE('',*,*,#246,.F.);
#307=ORIENTED_EDGE('',*,*,#247,.F.);
#308=ORIENTED_EDGE('',*,*,#248,.F.);
#309=ORIENTED_EDGE('',*,*,#249,.F.);
#310=ORIENTED_EDGE('',*,*,#250,.F.);
#311=ORIENTED_EDGE('',*,*,#251,.F.);
#312=ORIENTED_EDGE('',*,*,#237,.T.);
#313=ORIENTED_EDGE('',*,*,#252,.T.);
#314=ORIENTED_EDGE('',*,*,#253,.T.);
#315=ORIENTED_EDGE('',*,*,#254,.T.);
#316=ORIENTED_EDGE('',*,*,#255,.T.);
#317=ORIENTED_EDGE('',*,*,#256,.T.);
#318=ORIENTED_EDGE('',*,*,#256,.F.);
#319=ORIENTED_EDGE('',*,*,#257,.T.);
#320=ORIENTED_EDGE('',*,*,#253,.F.);
#321=ORIENTED_EDGE('',*,*,#257,.F.);
#322=ORIENTED_EDGE('',*,*,#255,.F.);
#323=ORIENTED_EDGE('',*,*,#258,.F.);
#324=ORIENTED_EDGE('',*,*,#259,.F.);
#325=ORIENTED_EDGE('',*,*,#254,.F.);
#326=ORIENTED_EDGE('',*,*,#259,.T.);
#327=ORIENTED_EDGE('',*,*,#260,.T.);
#328=ORIENTED_EDGE('',*,*,#238,.F.);
#329=ORIENTED_EDGE('',*,*,#252,.F.);
#330=ORIENTED_EDGE('',*,*,#239,.F.);
#331=ORIENTED_EDGE('',*,*,#260,.F.);
#332=ORIENTED_EDGE('',*,*,#258,.T.);
#333=ORIENTED_EDGE('',*,*,#245,.T.);
#334=ORIENTED_EDGE('',*,*,#261,.T.);
#335=ORIENTED_EDGE('',*,*,#262,.F.);
#336=ORIENTED_EDGE('',*,*,#263,.F.);
#337=ORIENTED_EDGE('',*,*,#244,.T.);
#338=ORIENTED_EDGE('',*,*,#264,.T.);
#339=ORIENTED_EDGE('',*,*,#265,.F.);
#340=ORIENTED_EDGE('',*,*,#261,.F.);
#341=ORIENTED_EDGE('',*,*,#243,.T.);
#342=ORIENTED_EDGE('',*,*,#266,.T.);
#343=ORIENTED_EDGE('',*,*,#267,.F.);
#344=ORIENTED_EDGE('',*,*,#264,.F.);
#345=ORIENTED_EDGE('',*,*,#242,.T.);
#346=ORIENTED_EDGE('',*,*,#268,.T.);
#347=ORIENTED_EDGE('',*,*,#269,.F.);
#348=ORIENTED_EDGE('',*,*,#266,.F.);
#349=ORIENTED_EDGE('',*,*,#241,.T.);
#350=ORIENTED_EDGE('',*,*,#270,.T.);
#351=ORIENTED_EDGE('',*,*,#271,.F.);
#352=ORIENTED_EDGE('',*,*,#268,.F.);
#353=ORIENTED_EDGE('',*,*,#240,.T.);
#354=ORIENTED_EDGE('',*,*,#272,.T.);
#355=ORIENTED_EDGE('',*,*,#273,.F.);
#356=ORIENTED_EDGE('',*,*,#270,.F.);
#357=ORIENTED_EDGE('',*,*,#274,.T.);
#358=ORIENTED_EDGE('',*,*,#275,.T.);
#359=ORIENTED_EDGE('',*,*,#276,.T.);
#360=ORIENTED_EDGE('',*,*,#277,.T.);
#361=ORIENTED_EDGE('',*,*,#271,.T.);
#362=ORIENTED_EDGE('',*,*,#273,.T.);
#363=ORIENTED_EDGE('',*,*,#278,.T.);
#364=ORIENTED_EDGE('',*,*,#279,.T.);
#365=ORIENTED_EDGE('',*,*,#280,.T.);
#366=ORIENTED_EDGE('',*,*,#281,.T.);
#367=ORIENTED_EDGE('',*,*,#282,.T.);
#368=ORIENTED_EDGE('',*,*,#283,.T.);
#369=ORIENTED_EDGE('',*,*,#262,.T.);
#370=ORIENTED_EDGE('',*,*,#265,.T.);
#371=ORIENTED_EDGE('',*,*,#267,.T.);
#372=ORIENTED_EDGE('',*,*,#269,.T.);
#373=ORIENTED_EDGE('',*,*,#275,.F.);
#374=ORIENTED_EDGE('',*,*,#284,.T.);
#375=ORIENTED_EDGE('',*,*,#285,.F.);
#376=ORIENTED_EDGE('',*,*,#286,.F.);
#377=ORIENTED_EDGE('',*,*,#276,.F.);
#378=ORIENTED_EDGE('',*,*,#286,.T.);
#379=ORIENTED_EDGE('',*,*,#287,.F.);
#380=ORIENTED_EDGE('',*,*,#288,.F.);
#381=ORIENTED_EDGE('',*,*,#277,.F.);
#382=ORIENTED_EDGE('',*,*,#288,.T.);
#383=ORIENTED_EDGE('',*,*,#289,.F.);
#384=ORIENTED_EDGE('',*,*,#290,.F.);
#385=ORIENTED_EDGE('',*,*,#274,.F.);
#386=ORIENTED_EDGE('',*,*,#290,.T.);
#387=ORIENTED_EDGE('',*,*,#291,.F.);
#388=ORIENTED_EDGE('',*,*,#284,.F.);
#389=ORIENTED_EDGE('',*,*,#291,.T.);
#390=ORIENTED_EDGE('',*,*,#289,.T.);
#391=ORIENTED_EDGE('',*,*,#287,.T.);
#392=ORIENTED_EDGE('',*,*,#285,.T.);
#393=ORIENTED_EDGE('',*,*,#246,.T.);
#394=ORIENTED_EDGE('',*,*,#263,.T.);
#395=ORIENTED_EDGE('',*,*,#283,.F.);
#396=ORIENTED_EDGE('',*,*,#292,.F.);
#397=ORIENTED_EDGE('',*,*,#247,.T.);
#398=ORIENTED_EDGE('',*,*,#292,.T.);
#399=ORIENTED_EDGE('',*,*,#282,.F.);
#400=ORIENTED_EDGE('',*,*,#293,.F.);
#401=ORIENTED_EDGE('',*,*,#248,.T.);
#402=ORIENTED_EDGE('',*,*,#293,.T.);
#403=ORIENTED_EDGE('',*,*,#281,.F.);
#404=ORIENTED_EDGE('',*,*,#294,.F.);
#405=ORIENTED_EDGE('',*,*,#249,.T.);
#406=ORIENTED_EDGE('',*,*,#294,.T.);
#407=ORIENTED_EDGE('',*,*,#280,.F.);
#408=ORIENTED_EDGE('',*,*,#295,.F.);
#409=ORIENTED_EDGE('',*,*,#250,.T.);
#410=ORIENTED_EDGE('',*,*,#295,.T.);
#411=ORIENTED_EDGE('',*,*,#279,.F.);
#412=ORIENTED_EDGE('',*,*,#296,.F.);
#413=ORIENTED_EDGE('',*,*,#251,.T.);
#414=ORIENTED_EDGE('',*,*,#296,.T.);
#415=ORIENTED_EDGE('',*,*,#278,.F.);
#416=ORIENTED_EDGE('',*,*,#272,.F.);
#417=CYLINDRICAL_SURFACE('',#456,1.906779660975);
#418=CYLINDRICAL_SURFACE('',#465,1.906779660975);
#419=ADVANCED_FACE('',(#140),#417,.T.);
#420=ADVANCED_FACE('',(#141,#16,#17),#120,.F.);
#421=ADVANCED_FACE('',(#142),#121,.F.);
#422=ADVANCED_FACE('',(#143),#418,.T.);
#423=ADVANCED_FACE('',(#144),#15,.T.);
#424=ADVANCED_FACE('',(#145),#122,.T.);
#425=ADVANCED_FACE('',(#146),#123,.T.);
#426=ADVANCED_FACE('',(#147),#124,.T.);
#427=ADVANCED_FACE('',(#148),#125,.T.);
#428=ADVANCED_FACE('',(#149),#126,.T.);
#429=ADVANCED_FACE('',(#150),#127,.T.);
#430=ADVANCED_FACE('',(#151,#18),#128,.F.);
#431=ADVANCED_FACE('',(#152),#129,.T.);
#432=ADVANCED_FACE('',(#153),#130,.T.);
#433=ADVANCED_FACE('',(#154),#131,.T.);
#434=ADVANCED_FACE('',(#155),#132,.T.);
#435=ADVANCED_FACE('',(#156),#133,.T.);
#436=ADVANCED_FACE('',(#157),#134,.T.);
#437=ADVANCED_FACE('',(#158),#135,.T.);
#438=ADVANCED_FACE('',(#159),#136,.T.);
#439=ADVANCED_FACE('',(#160),#137,.T.);
#440=ADVANCED_FACE('',(#161),#138,.T.);
#441=ADVANCED_FACE('',(#162),#139,.T.);
#442=CLOSED_SHELL('',(#419,#420,#421,#422,#423,#424,#425,#426,#427,#428,
#429,#430,#431,#432,#433,#434,#435,#436,#437,#438,#439,#440,#441));
#443=DERIVED_UNIT_ELEMENT(#445,1.);
#444=DERIVED_UNIT_ELEMENT(#904,-3.);
#445=(
MASS_UNIT()
NAMED_UNIT(*)
SI_UNIT(.KILO.,.GRAM.)
);
#446=DERIVED_UNIT((#443,#444));
#447=MEASURE_REPRESENTATION_ITEM('density measure',
POSITIVE_RATIO_MEASURE(7850.),#446);
#448=PROPERTY_DEFINITION_REPRESENTATION(#453,#450);
#449=PROPERTY_DEFINITION_REPRESENTATION(#454,#451);
#450=REPRESENTATION('material name',(#452),#901);
#451=REPRESENTATION('density',(#447),#901);
#452=DESCRIPTIVE_REPRESENTATION_ITEM('Steel','Steel');
#453=PROPERTY_DEFINITION('material property','material name',#911);
#454=PROPERTY_DEFINITION('material property','density of part',#911);
#455=AXIS2_PLACEMENT_3D('',#597,#486,#487);
#456=AXIS2_PLACEMENT_3D('',#598,#488,#489);
#457=AXIS2_PLACEMENT_3D('',#601,#490,#491);
#458=AXIS2_PLACEMENT_3D('',#603,#492,#493);
#459=AXIS2_PLACEMENT_3D('',#604,#494,#495);
#460=AXIS2_PLACEMENT_3D('',#605,#496,#497);
#461=AXIS2_PLACEMENT_3D('',#644,#510,#511);
#462=AXIS2_PLACEMENT_3D('',#661,#512,#513);
#463=AXIS2_PLACEMENT_3D('',#663,#515,#516);
#464=AXIS2_PLACEMENT_3D('',#664,#517,#518);
#465=AXIS2_PLACEMENT_3D('',#665,#519,#520);
#466=AXIS2_PLACEMENT_3D('',#667,#521,#522);
#467=AXIS2_PLACEMENT_3D('',#668,#523,#524);
#468=AXIS2_PLACEMENT_3D('',#825,#525,#526);
#469=AXIS2_PLACEMENT_3D('',#831,#530,#531);
#470=AXIS2_PLACEMENT_3D('',#835,#534,#535);
#471=AXIS2_PLACEMENT_3D('',#839,#538,#539);
#472=AXIS2_PLACEMENT_3D('',#843,#542,#543);
#473=AXIS2_PLACEMENT_3D('',#847,#546,#547);
#474=AXIS2_PLACEMENT_3D('',#851,#550,#551);
#475=AXIS2_PLACEMENT_3D('',#871,#562,#563);
#476=AXIS2_PLACEMENT_3D('',#877,#567,#568);
#477=AXIS2_PLACEMENT_3D('',#881,#571,#572);
#478=AXIS2_PLACEMENT_3D('',#885,#575,#576);
#479=AXIS2_PLACEMENT_3D('',#887,#578,#579);
#480=AXIS2_PLACEMENT_3D('',#888,#580,#581);
#481=AXIS2_PLACEMENT_3D('',#890,#583,#584);
#482=AXIS2_PLACEMENT_3D('',#892,#586,#587);
#483=AXIS2_PLACEMENT_3D('',#894,#589,#590);
#484=AXIS2_PLACEMENT_3D('',#896,#592,#593);
#485=AXIS2_PLACEMENT_3D('',#898,#595,#596);
#486=DIRECTION('axis',(0.,0.,1.));
#487=DIRECTION('refdir',(1.,0.,0.));
#488=DIRECTION('center_axis',(0.527020398820025,0.,0.849852633829879));
#489=DIRECTION('ref_axis',(0.849852633829879,6.27848127785824E-15,-0.527020398820025));
#490=DIRECTION('center_axis',(0.,0.,1.));
#491=DIRECTION('ref_axis',(-1.,0.,0.));
#492=DIRECTION('center_axis',(0.527020398820025,0.,0.849852633829879));
#493=DIRECTION('ref_axis',(0.,1.,0.));
#494=DIRECTION('center_axis',(0.527020398820025,0.,0.849852633829879));
#495=DIRECTION('ref_axis',(0.,1.,0.));
#496=DIRECTION('center_axis',(0.,0.,1.));
#497=DIRECTION('ref_axis',(1.,0.,0.));
#498=DIRECTION('',(4.75809867696495E-16,-1.,0.));
#499=DIRECTION('',(-1.,-1.22464679914735E-16,0.));
#500=DIRECTION('',(-5.3371327100713E-17,-1.,0.));
#501=DIRECTION('',(-1.,3.20064295387432E-16,0.));
#502=DIRECTION('',(1.13869028166683E-16,1.,0.));
#503=DIRECTION('',(-1.,5.49739465419231E-16,0.));
#504=DIRECTION('',(9.60192886162297E-16,1.,0.));
#505=DIRECTION('',(1.,1.14603667058081E-16,0.));
#506=DIRECTION('',(2.29207334116161E-16,1.,0.));
#507=DIRECTION('',(1.,3.20064295387432E-16,0.));
#508=DIRECTION('',(-3.74252600236545E-16,-1.,0.));
#509=DIRECTION('',(1.,0.,0.));
#510=DIRECTION('center_axis',(0.,0.,1.));
#511=DIRECTION('ref_axis',(-1.,0.,0.));
#512=DIRECTION('center_axis',(0.,0.,1.));
#513=DIRECTION('ref_axis',(-1.,0.,0.));
#514=DIRECTION('',(0.,-1.,0.));
#515=DIRECTION('center_axis',(0.554428243328027,0.,-0.832231532087194));
#516=DIRECTION('ref_axis',(-0.832231532087194,0.,-0.554428243328027));
#517=DIRECTION('center_axis',(-0.554428243328027,0.,0.832231532087194));
#518=DIRECTION('ref_axis',(0.,1.,0.));
#519=DIRECTION('center_axis',(-0.554428243328018,0.,0.8322315320872));
#520=DIRECTION('ref_axis',(-0.8322315320872,-1.83697019872103E-16,-0.554428243328018));
#521=DIRECTION('center_axis',(0.554428243328027,0.,-0.832231532087194));
#522=DIRECTION('ref_axis',(0.,1.,0.));
#523=DIRECTION('center_axis',(0.554428243328027,0.,-0.832231532087194));
#524=DIRECTION('ref_axis',(0.,1.,0.));
#525=DIRECTION('center_axis',(5.49739465419231E-16,1.,0.));
#526=DIRECTION('ref_axis',(-1.,5.49739465419231E-16,0.));
#527=DIRECTION('',(0.,0.,1.));
#528=DIRECTION('',(-1.,5.49739465419231E-16,0.));
#529=DIRECTION('',(0.,0.,1.));
#530=DIRECTION('center_axis',(1.,-1.13869028166683E-16,0.));
#531=DIRECTION('ref_axis',(1.13869028166683E-16,1.,0.));
#532=DIRECTION('',(0.,0.,1.));
#533=DIRECTION('',(1.13869028166683E-16,1.,0.));
#534=DIRECTION('center_axis',(3.20064295387432E-16,1.,0.));
#535=DIRECTION('ref_axis',(-1.,3.20064295387432E-16,0.));
#536=DIRECTION('',(0.,0.,1.));
#537=DIRECTION('',(-1.,3.20064295387432E-16,0.));
#538=DIRECTION('center_axis',(-1.,5.3371327100713E-17,0.));
#539=DIRECTION('ref_axis',(-5.3371327100713E-17,-1.,0.));
#540=DIRECTION('',(0.,0.,1.));
#541=DIRECTION('',(-5.3371327100713E-17,-1.,0.));
#542=DIRECTION('center_axis',(-1.22464679914735E-16,1.,0.));
#543=DIRECTION('ref_axis',(-1.,-1.22464679914735E-16,0.));
#544=DIRECTION('',(0.,0.,1.));
#545=DIRECTION('',(-1.,-1.22464679914735E-16,0.));
#546=DIRECTION('center_axis',(-1.,-4.75809867696495E-16,0.));
#547=DIRECTION('ref_axis',(4.75809867696495E-16,-1.,0.));
#548=DIRECTION('',(0.,0.,1.));
#549=DIRECTION('',(4.75809867696495E-16,-1.,0.));
#550=DIRECTION('center_axis',(0.,0.,1.));
#551=DIRECTION('ref_axis',(-1.,0.,0.));
#552=DIRECTION('',(-1.,0.,0.));
#553=DIRECTION('',(0.,1.,0.));
#554=DIRECTION('',(1.,6.02154860813644E-17,0.));
#555=DIRECTION('',(0.,-1.,0.));
#556=DIRECTION('',(1.,0.,0.));
#557=DIRECTION('',(-3.74252600236545E-16,-1.,0.));
#558=DIRECTION('',(1.,3.20064295387432E-16,0.));
#559=DIRECTION('',(2.29207334116161E-16,1.,0.));
#560=DIRECTION('',(1.,1.14603667058081E-16,0.));
#561=DIRECTION('',(9.60192886162297E-16,1.,0.));
#562=DIRECTION('center_axis',(-1.,0.,0.));
#563=DIRECTION('ref_axis',(0.,-1.,0.));
#564=DIRECTION('',(0.,0.,1.));
#565=DIRECTION('',(0.,-1.,0.));
#566=DIRECTION('',(0.,0.,1.));
#567=DIRECTION('center_axis',(-6.02154860813644E-17,1.,0.));
#568=DIRECTION('ref_axis',(-1.,-6.02154860813644E-17,0.));
#569=DIRECTION('',(-1.,-6.02154860813644E-17,0.));
#570=DIRECTION('',(0.,0.,1.));
#571=DIRECTION('center_axis',(1.,0.,0.));
#572=DIRECTION('ref_axis',(0.,1.,0.));
#573=DIRECTION('',(0.,1.,0.));
#574=DIRECTION('',(0.,0.,1.));
#575=DIRECTION('center_axis',(0.,-1.,0.));
#576=DIRECTION('ref_axis',(1.,0.,0.));
#577=DIRECTION('',(1.,0.,0.));
#578=DIRECTION('center_axis',(0.,0.,1.));
#579=DIRECTION('ref_axis',(1.,0.,0.));
#580=DIRECTION('center_axis',(1.,-9.60192886162297E-16,0.));
#581=DIRECTION('ref_axis',(9.60192886162297E-16,1.,0.));
#582=DIRECTION('',(0.,0.,1.));
#583=DIRECTION('center_axis',(1.14603667058081E-16,-1.,0.));
#584=DIRECTION('ref_axis',(1.,1.14603667058081E-16,0.));
#585=DIRECTION('',(0.,0.,1.));
#586=DIRECTION('center_axis',(1.,-2.29207334116161E-16,0.));
#587=DIRECTION('ref_axis',(2.29207334116161E-16,1.,0.));
#588=DIRECTION('',(0.,0.,1.));
#589=DIRECTION('center_axis',(3.20064295387432E-16,-1.,0.));
#590=DIRECTION('ref_axis',(1.,3.20064295387432E-16,0.));
#591=DIRECTION('',(0.,0.,1.));
#592=DIRECTION('center_axis',(-1.,3.74252600236545E-16,0.));
#593=DIRECTION('ref_axis',(-3.74252600236545E-16,-1.,0.));
#594=DIRECTION('',(0.,0.,1.));
#595=DIRECTION('center_axis',(0.,-1.,0.));
#596=DIRECTION('ref_axis',(1.,0.,0.));
#597=CARTESIAN_POINT('',(0.,0.,0.));
#598=CARTESIAN_POINT('Origin',(258.398202794883,192.762711866039,324.179730492553));
#599=CARTESIAN_POINT('',(257.348783484186,191.309778350175,324.83050847645));
#600=CARTESIAN_POINT('',(257.348783484186,194.215645381902,324.83050847645));
#601=CARTESIAN_POINT('Origin',(258.801770730033,192.762711866039,324.83050847645));
#602=CARTESIAN_POINT('',(258.398202794883,190.855932205064,324.179730492553));
#603=CARTESIAN_POINT('Origin',(258.398202794883,192.762711866039,324.179730492553));
#604=CARTESIAN_POINT('Origin',(258.398202794883,192.762711866039,324.179730492553));
#605=CARTESIAN_POINT('Origin',(247.750000001652,192.000000001648,324.83050847645));
#606=CARTESIAN_POINT('',(220.991525425969,199.118644069289,324.83050847645));
#607=CARTESIAN_POINT('',(220.991525425969,184.881355934008,324.83050847645));
#608=CARTESIAN_POINT('',(220.991525425969,195.559322035468,324.83050847645));
#609=CARTESIAN_POINT('',(240.694915256044,199.118644069289,324.83050847645));
#610=CARTESIAN_POINT('',(244.222457628848,199.118644069289,324.83050847645));
#611=CARTESIAN_POINT('',(240.694915256044,218.822033899364,324.83050847645));
#612=CARTESIAN_POINT('',(240.694915256044,205.411016950506,324.83050847645));
#613=CARTESIAN_POINT('',(254.805084747259,218.822033899364,324.83050847645));
#614=CARTESIAN_POINT('',(251.277542374455,218.822033899364,324.83050847645));
#615=CARTESIAN_POINT('',(254.805084747259,198.991525425224,324.83050847645));
#616=CARTESIAN_POINT('',(254.805084747259,195.495762713436,324.83050847645));
#617=CARTESIAN_POINT('',(274.508474577334,198.991525425223,324.83050847645));
#618=CARTESIAN_POINT('',(261.129237289493,198.991525425224,324.83050847645));
#619=CARTESIAN_POINT('',(274.508474577334,184.881355934008,324.83050847645));
#620=CARTESIAN_POINT('',(274.508474577334,188.440677967828,324.83050847645));
#621=CARTESIAN_POINT('',(254.805084747259,184.881355934008,324.83050847645));
#622=CARTESIAN_POINT('',(251.277542374455,184.881355934008,324.83050847645));
#623=CARTESIAN_POINT('',(254.805084747259,165.177966103933,324.83050847645));
#624=CARTESIAN_POINT('',(254.805084747259,178.588983052791,324.83050847645));
#625=CARTESIAN_POINT('',(240.694915256044,165.177966103933,324.83050847645));
#626=CARTESIAN_POINT('',(244.222457628848,165.177966103933,324.83050847645));
#627=CARTESIAN_POINT('',(240.694915256044,184.881355934008,324.83050847645));
#628=CARTESIAN_POINT('',(240.694915256044,188.440677967828,324.83050847645));
#629=CARTESIAN_POINT('',(234.37076271381,184.881355934008,324.83050847645));
#630=CARTESIAN_POINT('Ctrl Pts',(257.348783484186,194.215645381902,324.83050847645));
#631=CARTESIAN_POINT('Ctrl Pts',(257.134105437548,194.060588536379,324.83050847645));
#632=CARTESIAN_POINT('Ctrl Pts',(256.948667874263,193.867763469082,324.830508476451));
#633=CARTESIAN_POINT('Ctrl Pts',(256.69170080616,193.449316204584,324.830508476451));
#634=CARTESIAN_POINT('Ctrl Pts',(256.610673554599,193.236637636884,324.83050847645));
#635=CARTESIAN_POINT('Ctrl Pts',(256.542816072276,192.802749222773,324.83050847645));
#636=CARTESIAN_POINT('Ctrl Pts',(256.551644447236,192.590111729794,324.83050847645));
#637=CARTESIAN_POINT('Ctrl Pts',(256.652338739837,192.170480721499,324.83050847645));
#638=CARTESIAN_POINT('Ctrl Pts',(256.74493636824,191.970853881612,324.83050847645));
#639=CARTESIAN_POINT('Ctrl Pts',(257.000809317101,191.604699364038,324.83050847645));
#640=CARTESIAN_POINT('Ctrl Pts',(257.164088228529,191.443179339115,324.83050847645));
#641=CARTESIAN_POINT('Ctrl Pts',(257.348783484186,191.309778350175,324.83050847645));
#642=CARTESIAN_POINT('',(230.962226138771,192.221444829202,324.83050847645));
#643=CARTESIAN_POINT('',(234.569545975139,191.26003289028,324.83050847645));
#644=CARTESIAN_POINT('Origin',(233.159142595869,192.762711866039,324.83050847645));
#645=CARTESIAN_POINT('',(234.569545975139,194.265390841797,324.83050847645));
#646=CARTESIAN_POINT('Ctrl Pts',(234.569545975139,191.26003289028,324.83050847645));
#647=CARTESIAN_POINT('Ctrl Pts',(234.798056385462,191.408582478744,324.83050847645));
#648=CARTESIAN_POINT('Ctrl Pts',(234.999230560811,191.597167962012,324.830508476452));
#649=CARTESIAN_POINT('Ctrl Pts',(235.281067176971,192.008809449948,324.830508476452));
#650=CARTESIAN_POINT('Ctrl Pts',(235.37325919508,192.217203828333,324.830508476451));
#651=CARTESIAN_POINT('Ctrl Pts',(235.462106459588,192.644325376522,324.830508476451));
#652=CARTESIAN_POINT('Ctrl Pts',(235.463935289609,192.853868760909,324.83050847645));
#653=CARTESIAN_POINT('Ctrl Pts',(235.384916149085,193.268652047317,324.83050847645));
#654=CARTESIAN_POINT('Ctrl Pts',(235.304240895636,193.466409288895,324.83050847645));
#655=CARTESIAN_POINT('Ctrl Pts',(235.113299415965,193.768958528585,324.83050847645));
#656=CARTESIAN_POINT('Ctrl Pts',(235.021723649845,193.881779703815,324.83050847645));
#657=CARTESIAN_POINT('Ctrl Pts',(234.81288880856,194.089705856101,324.83050847645));
#658=CARTESIAN_POINT('Ctrl Pts',(234.695250686582,194.183672975524,324.83050847645));
#659=CARTESIAN_POINT('Ctrl Pts',(234.569545975139,194.265390841797,324.83050847645));
#660=CARTESIAN_POINT('',(230.962226138771,193.303978902875,324.83050847645));
#661=CARTESIAN_POINT('Origin',(233.159142595869,192.762711866039,324.83050847645));
#662=CARTESIAN_POINT('',(230.962226138771,192.381355933844,324.83050847645));
#663=CARTESIAN_POINT('Origin',(232.483830958809,192.762711866039,325.844193556728));
#664=CARTESIAN_POINT('Origin',(232.483830958809,192.762711866039,325.844193556728));
#665=CARTESIAN_POINT('Origin',(233.592687445465,192.762711866039,324.179730492553));
#666=CARTESIAN_POINT('',(233.592687445465,190.855932205064,324.179730492553));
#667=CARTESIAN_POINT('Origin',(233.592687445465,192.762711866039,324.179730492553));
#668=CARTESIAN_POINT('Origin',(233.592687445465,192.762711866039,324.179730492553));
#669=CARTESIAN_POINT('Ctrl Pts',(233.592687445465,190.855932205064,324.179730492553));
#670=CARTESIAN_POINT('Ctrl Pts',(234.813227056593,190.855932205064,322.347624060809));
#671=CARTESIAN_POINT('Ctrl Pts',(237.2446068367,190.855932205063,319.135301689346));
#672=CARTESIAN_POINT('Ctrl Pts',(240.861140341122,190.855932205063,315.739477574499));
#673=CARTESIAN_POINT('Ctrl Pts',(243.846309938764,190.855932205063,314.242466676239));
#674=CARTESIAN_POINT('Ctrl Pts',(246.215347834663,190.855932205063,313.93461079755));
#675=CARTESIAN_POINT('Ctrl Pts',(247.687907677698,190.855932205063,314.1190545819));
#676=CARTESIAN_POINT('Ctrl Pts',(248.861167295453,190.855932205063,314.48969127008));
#677=CARTESIAN_POINT('Ctrl Pts',(250.031307832459,190.855932205063,315.005643834315));
#678=CARTESIAN_POINT('Ctrl Pts',(252.07103186964,190.855932205063,316.282295872271));
#679=CARTESIAN_POINT('Ctrl Pts',(254.963296822897,190.855932205063,319.113649924305));
#680=CARTESIAN_POINT('Ctrl Pts',(257.256504517284,190.855932205064,322.33867217597));
#681=CARTESIAN_POINT('Ctrl Pts',(258.398202794883,190.855932205064,324.179730492553));
#682=CARTESIAN_POINT('Ctrl Pts',(233.355290429675,190.855932205064,324.021577856705));
#683=CARTESIAN_POINT('Ctrl Pts',(234.581728365297,190.855932205064,322.180617670324));
#684=CARTESIAN_POINT('Ctrl Pts',(237.027383993769,190.855932205063,318.948261536091));
#685=CARTESIAN_POINT('Ctrl Pts',(240.684826459639,190.855932205063,315.510086327562));
#686=CARTESIAN_POINT('Ctrl Pts',(243.748314614694,190.855932205063,313.966960024493));
#687=CARTESIAN_POINT('Ctrl Pts',(246.21467290203,190.855932205063,313.645148180799));
#688=CARTESIAN_POINT('Ctrl Pts',(247.748066830062,190.855932205063,313.837889743405));
#689=CARTESIAN_POINT('Ctrl Pts',(248.963201932231,190.855932205063,314.221952577826));
#690=CARTESIAN_POINT('Ctrl Pts',(250.169802094431,190.855932205063,314.754156380139));
#691=CARTESIAN_POINT('Ctrl Pts',(252.257950932322,190.855932205063,316.062530787399));
#692=CARTESIAN_POINT('Ctrl Pts',(255.185953492278,190.855932205063,318.932788772205));
#693=CARTESIAN_POINT('Ctrl Pts',(257.493069921657,190.855932205064,322.178891191318));
#694=CARTESIAN_POINT('Ctrl Pts',(258.640626292857,190.855932205064,324.029396042203));
#695=CARTESIAN_POINT('Ctrl Pts',(232.882345181246,190.987430562494,323.706504234561));
#696=CARTESIAN_POINT('Ctrl Pts',(234.120372907844,190.987430562494,321.848147045741));
#697=CARTESIAN_POINT('Ctrl Pts',(236.596533111677,190.987430562494,318.575914746194));
#698=CARTESIAN_POINT('Ctrl Pts',(240.335526462885,190.987430562494,315.054332202277));
#699=CARTESIAN_POINT('Ctrl Pts',(243.555611908646,190.987430562494,313.420250152895));
#700=CARTESIAN_POINT('Ctrl Pts',(246.213456934399,190.987430562494,313.071025248183));
#701=CARTESIAN_POINT('Ctrl Pts',(247.867537027857,190.987430562494,313.280095747993));
#702=CARTESIAN_POINT('Ctrl Pts',(249.165371436157,190.987430562494,313.690571287752));
#703=CARTESIAN_POINT('Ctrl Pts',(250.443856702492,190.987430562494,314.254736509518));
#704=CARTESIAN_POINT('Ctrl Pts',(252.627801330469,190.987430562494,315.625558463336));
#705=CARTESIAN_POINT('Ctrl Pts',(255.627362745253,190.987430562494,318.572580629653));
#706=CARTESIAN_POINT('Ctrl Pts',(257.96451824947,190.987430562494,321.860831281669));
#707=CARTESIAN_POINT('Ctrl Pts',(259.123585360782,190.987430562494,323.729897905162));
#708=CARTESIAN_POINT('Ctrl Pts',(232.114564557349,191.712917426976,323.195012845259));
#709=CARTESIAN_POINT('Ctrl Pts',(233.371578886425,191.712917426976,321.308155576474));
#710=CARTESIAN_POINT('Ctrl Pts',(235.895057975755,191.712917426975,317.971150489538));
#711=CARTESIAN_POINT('Ctrl Pts',(239.766386256066,191.712917426975,314.313134565766));
#712=CARTESIAN_POINT('Ctrl Pts',(243.240083886022,191.712917426975,312.530417418956));
#713=CARTESIAN_POINT('Ctrl Pts',(246.211345670027,191.712917426975,312.136273752965));
#714=CARTESIAN_POINT('Ctrl Pts',(248.061890310883,191.712917426975,312.372068224973));
#715=CARTESIAN_POINT('Ctrl Pts',(249.494753153849,191.712917426975,312.825779695174));
#716=CARTESIAN_POINT('Ctrl Pts',(250.89073736225,191.712917426975,313.442273437342));
#717=CARTESIAN_POINT('Ctrl Pts',(253.230919164655,191.712917426975,314.915273310282));
#718=CARTESIAN_POINT('Ctrl Pts',(256.346263218545,191.712917426975,317.987704992286));
#719=CARTESIAN_POINT('Ctrl Pts',(258.729698235681,191.712917426976,321.344216950696));
#720=CARTESIAN_POINT('Ctrl Pts',(259.907622446935,191.712917426976,323.243691801438));
#721=CARTESIAN_POINT('Ctrl Pts',(231.82257174699,193.247094391454,323.000488779935));
#722=CARTESIAN_POINT('Ctrl Pts',(233.086785061693,193.247094391454,321.102825382659));
#723=CARTESIAN_POINT('Ctrl Pts',(235.628539031009,193.247094391454,317.741191491913));
#724=CARTESIAN_POINT('Ctrl Pts',(239.550202263072,193.247094391454,314.031419429691));
#725=CARTESIAN_POINT('Ctrl Pts',(243.12042763711,193.247094391454,312.192299097482));
#726=CARTESIAN_POINT('Ctrl Pts',(246.21056013792,193.247094391454,311.781125254388));
#727=CARTESIAN_POINT('Ctrl Pts',(248.135753003927,193.247094391454,312.027055737483));
#728=CARTESIAN_POINT('Ctrl Pts',(249.619870062602,193.247094391454,312.497164850825));
#729=CARTESIAN_POINT('Ctrl Pts',(251.060438552176,193.247094391454,313.133503469726));
#730=CARTESIAN_POINT('Ctrl Pts',(253.459947022678,193.247094391454,314.645260930644));
#731=CARTESIAN_POINT('Ctrl Pts',(256.619373046619,193.247094391454,317.765286629638));
#732=CARTESIAN_POINT('Ctrl Pts',(259.020723618998,193.247094391454,321.147779447605));
#733=CARTESIAN_POINT('Ctrl Pts',(260.205797713523,193.247094391454,323.058783922518));
#734=CARTESIAN_POINT('Ctrl Pts',(232.805135731942,194.730376075926,323.655067707951));
#735=CARTESIAN_POINT('Ctrl Pts',(234.045106506922,194.730376075926,321.793793881764));
#736=CARTESIAN_POINT('Ctrl Pts',(236.525592679081,194.730376075926,318.515040504295));
#737=CARTESIAN_POINT('Ctrl Pts',(240.277883075233,194.730376075926,314.979535750316));
#738=CARTESIAN_POINT('Ctrl Pts',(243.523352774548,194.730376075925,313.330314752819));
#739=CARTESIAN_POINT('Ctrl Pts',(246.213217665893,194.730376075925,312.976490973811));
#740=CARTESIAN_POINT('Ctrl Pts',(247.887161099007,194.730376075925,313.188291213264));
#741=CARTESIAN_POINT('Ctrl Pts',(249.198726251141,194.730376075925,313.603184841248));
#742=CARTESIAN_POINT('Ctrl Pts',(250.48918463037,194.730376075925,314.172699171036));
#743=CARTESIAN_POINT('Ctrl Pts',(252.688982555219,194.730376075925,315.553953514212));
#744=CARTESIAN_POINT('Ctrl Pts',(255.700111442664,194.730376075926,318.513742305241));
#745=CARTESIAN_POINT('Ctrl Pts',(258.041432683523,194.730376075926,321.808825577375));
#746=CARTESIAN_POINT('Ctrl Pts',(259.202429590204,194.730376075926,323.681004113956));
#747=CARTESIAN_POINT('Ctrl Pts',(234.380947248542,194.729423310477,324.70486500267));
#748=CARTESIAN_POINT('Ctrl Pts',(235.582057012112,194.729423310477,322.901923989528));
#749=CARTESIAN_POINT('Ctrl Pts',(237.964045281832,194.729423310477,319.756088226277));
#750=CARTESIAN_POINT('Ctrl Pts',(241.444693816992,194.729423310477,316.499957675616));
#751=CARTESIAN_POINT('Ctrl Pts',(244.169262720683,194.729423310477,315.155186799537));
#752=CARTESIAN_POINT('Ctrl Pts',(246.217464900516,194.729423310477,314.893294599282));
#753=CARTESIAN_POINT('Ctrl Pts',(247.488519423769,194.729423310477,315.050380914449));
#754=CARTESIAN_POINT('Ctrl Pts',(248.5234338599,194.729423310477,315.376759983915));
#755=CARTESIAN_POINT('Ctrl Pts',(249.57323595922,194.729423310477,315.839151015196));
#756=CARTESIAN_POINT('Ctrl Pts',(251.452821185892,194.729423310477,317.011194275135));
#757=CARTESIAN_POINT('Ctrl Pts',(254.226073077806,194.729423310477,319.714084585972));
#758=CARTESIAN_POINT('Ctrl Pts',(256.470851961571,194.729423310477,322.868965072469));
#759=CARTESIAN_POINT('Ctrl Pts',(257.593252917404,194.729423310477,324.678905277183));
#760=CARTESIAN_POINT('Ctrl Pts',(235.364329585636,193.249330336222,325.359989112552));
#761=CARTESIAN_POINT('Ctrl Pts',(236.541189919394,193.249330336222,323.593448012956));
#762=CARTESIAN_POINT('Ctrl Pts',(238.861688762121,193.249330336222,320.530558870814));
#763=CARTESIAN_POINT('Ctrl Pts',(242.172819134301,193.249330336222,317.448761007712));
#764=CARTESIAN_POINT('Ctrl Pts',(244.572314761922,193.249330336222,316.293971923802));
#765=CARTESIAN_POINT('Ctrl Pts',(246.220114009204,193.249330336222,316.089445302947));
#766=CARTESIAN_POINT('Ctrl Pts',(247.239751848685,193.249330336222,316.212389644165));
#767=CARTESIAN_POINT('Ctrl Pts',(248.102030633358,193.249330336222,316.483534931974));
#768=CARTESIAN_POINT('Ctrl Pts',(249.001659606909,193.249330336222,316.879080277525));
#769=CARTESIAN_POINT('Ctrl Pts',(250.681423885188,193.249330336222,317.920573729352));
#770=CARTESIAN_POINT('Ctrl Pts',(253.306225210795,193.249330336222,320.463154897424));
#771=CARTESIAN_POINT('Ctrl Pts',(255.490732189818,193.249330336222,323.530540468258));
#772=CARTESIAN_POINT('Ctrl Pts',(256.589049114714,193.249330336222,325.301643699732));
#773=CARTESIAN_POINT('Ctrl Pts',(235.011926312213,191.402751428758,325.125219916368));
#774=CARTESIAN_POINT('Ctrl Pts',(236.197461283198,191.402751428758,323.345657642766));
#775=CARTESIAN_POINT('Ctrl Pts',(238.540192239937,191.402751428758,320.253047257105));
#776=CARTESIAN_POINT('Ctrl Pts',(241.912075778321,191.402751428758,317.108867861849));
#777=CARTESIAN_POINT('Ctrl Pts',(244.428118503969,191.402751428758,315.886084575026));
#778=CARTESIAN_POINT('Ctrl Pts',(246.219176948474,191.402751428758,315.661037734423));
#779=CARTESIAN_POINT('Ctrl Pts',(247.328863581202,191.402751428758,315.79619787105));
#780=CARTESIAN_POINT('Ctrl Pts',(248.252938592473,191.402751428757,316.087104691698));
#781=CARTESIAN_POINT('Ctrl Pts',(249.206311806858,191.402751428757,316.506565213387));
#782=CARTESIAN_POINT('Ctrl Pts',(250.957619049663,191.402751428758,317.594770732167));
#783=CARTESIAN_POINT('Ctrl Pts',(253.635653397978,191.402751428758,320.194729373294));
#784=CARTESIAN_POINT('Ctrl Pts',(255.841981539486,191.402751428758,323.293483981422));
#785=CARTESIAN_POINT('Ctrl Pts',(256.948913934229,191.402751428758,325.07848018508));
#786=CARTESIAN_POINT('Ctrl Pts',(234.067481477045,190.855932205064,324.49603576425));
#787=CARTESIAN_POINT('Ctrl Pts',(235.276328874393,190.855932205064,322.68148007799));
#788=CARTESIAN_POINT('Ctrl Pts',(237.677817438953,190.855932205063,319.509202295528));
#789=CARTESIAN_POINT('Ctrl Pts',(241.212499565678,190.855932205063,316.197454086221));
#790=CARTESIAN_POINT('Ctrl Pts',(244.04066206858,190.855932205063,314.792079583056));
#791=CARTESIAN_POINT('Ctrl Pts',(246.216614214929,190.855932205063,314.511882415126));
#792=CARTESIAN_POINT('Ctrl Pts',(247.567835726156,190.855932205063,314.679861734797));
#793=CARTESIAN_POINT('Ctrl Pts',(248.657815237045,190.855932205063,315.023863555068));
#794=CARTESIAN_POINT('Ctrl Pts',(249.755523389846,190.855932205063,315.507582640751));
#795=CARTESIAN_POINT('Ctrl Pts',(251.698836981503,190.855932205063,316.721276766207));
#796=CARTESIAN_POINT('Ctrl Pts',(254.519391821096,190.855932205063,319.475303655037));
#797=CARTESIAN_POINT('Ctrl Pts',(256.783269985654,190.855932205064,322.65806688578));
#798=CARTESIAN_POINT('Ctrl Pts',(257.913355798936,190.855932205064,324.480399393253));
#799=CARTESIAN_POINT('Ctrl Pts',(233.592687445465,190.855932205064,324.179730492553));
#800=CARTESIAN_POINT('Ctrl Pts',(234.813227056593,190.855932205064,322.347624060809));
#801=CARTESIAN_POINT('Ctrl Pts',(237.2446068367,190.855932205063,319.135301689346));
#802=CARTESIAN_POINT('Ctrl Pts',(240.861140341122,190.855932205063,315.739477574499));
#803=CARTESIAN_POINT('Ctrl Pts',(243.846309938764,190.855932205063,314.242466676239));
#804=CARTESIAN_POINT('Ctrl Pts',(246.215347834663,190.855932205063,313.93461079755));
#805=CARTESIAN_POINT('Ctrl Pts',(247.687907677698,190.855932205063,314.1190545819));
#806=CARTESIAN_POINT('Ctrl Pts',(248.861167295453,190.855932205063,314.48969127008));
#807=CARTESIAN_POINT('Ctrl Pts',(250.031307832459,190.855932205063,315.005643834315));
#808=CARTESIAN_POINT('Ctrl Pts',(252.07103186964,190.855932205063,316.282295872271));
#809=CARTESIAN_POINT('Ctrl Pts',(254.963296822897,190.855932205063,319.113649924305));
#810=CARTESIAN_POINT('Ctrl Pts',(257.256504517284,190.855932205064,322.33867217597));
#811=CARTESIAN_POINT('Ctrl Pts',(258.398202794883,190.855932205064,324.179730492553));
#812=CARTESIAN_POINT('Ctrl Pts',(233.592687445465,190.855932205064,324.179730492553));
#813=CARTESIAN_POINT('Ctrl Pts',(234.813227056593,190.855932205064,322.347624060809));
#814=CARTESIAN_POINT('Ctrl Pts',(237.2446068367,190.855932205063,319.135301689346));
#815=CARTESIAN_POINT('Ctrl Pts',(240.861140341122,190.855932205063,315.739477574499));
#816=CARTESIAN_POINT('Ctrl Pts',(243.846309938764,190.855932205063,314.242466676239));
#817=CARTESIAN_POINT('Ctrl Pts',(246.215347834663,190.855932205063,313.93461079755));
#818=CARTESIAN_POINT('Ctrl Pts',(247.687907677698,190.855932205063,314.1190545819));
#819=CARTESIAN_POINT('Ctrl Pts',(248.861167295453,190.855932205063,314.48969127008));
#820=CARTESIAN_POINT('Ctrl Pts',(250.031307832459,190.855932205063,315.005643834315));
#821=CARTESIAN_POINT('Ctrl Pts',(252.07103186964,190.855932205063,316.282295872271));
#822=CARTESIAN_POINT('Ctrl Pts',(254.963296822897,190.855932205063,319.113649924305));
#823=CARTESIAN_POINT('Ctrl Pts',(257.256504517284,190.855932205064,322.33867217597));
#824=CARTESIAN_POINT('Ctrl Pts',(258.398202794883,190.855932205064,324.179730492553));
#825=CARTESIAN_POINT('Origin',(274.508474577334,198.991525425223,305.7627118667));
#826=CARTESIAN_POINT('',(254.805084747259,198.991525425224,369.3220338992));
#827=CARTESIAN_POINT('',(254.805084747259,198.991525425224,305.7627118667));
#828=CARTESIAN_POINT('',(274.508474577334,198.991525425223,369.3220338992));
#829=CARTESIAN_POINT('',(254.805084747259,198.991525425224,369.3220338992));
#830=CARTESIAN_POINT('',(274.508474577334,198.991525425223,305.7627118667));
#831=CARTESIAN_POINT('Origin',(254.805084747259,198.991525425224,305.7627118667));
#832=CARTESIAN_POINT('',(254.805084747259,218.822033899364,369.3220338992));
#833=CARTESIAN_POINT('',(254.805084747259,218.822033899364,305.7627118667));
#834=CARTESIAN_POINT('',(254.805084747259,218.822033899364,369.3220338992));
#835=CARTESIAN_POINT('Origin',(254.805084747259,218.822033899364,305.7627118667));
#836=CARTESIAN_POINT('',(240.694915256044,218.822033899364,369.3220338992));
#837=CARTESIAN_POINT('',(240.694915256044,218.822033899364,305.7627118667));
#838=CARTESIAN_POINT('',(240.694915256044,218.822033899364,369.3220338992));
#839=CARTESIAN_POINT('Origin',(240.694915256044,218.822033899364,305.7627118667));
#840=CARTESIAN_POINT('',(240.694915256044,199.118644069289,369.3220338992));
#841=CARTESIAN_POINT('',(240.694915256044,199.118644069289,305.7627118667));
#842=CARTESIAN_POINT('',(240.694915256044,199.118644069289,369.3220338992));
#843=CARTESIAN_POINT('Origin',(240.694915256044,199.118644069289,305.7627118667));
#844=CARTESIAN_POINT('',(220.991525425969,199.118644069289,369.3220338992));
#845=CARTESIAN_POINT('',(220.991525425969,199.118644069289,305.7627118667));
#846=CARTESIAN_POINT('',(220.991525425969,199.118644069289,369.3220338992));
#847=CARTESIAN_POINT('Origin',(220.991525425969,199.118644069289,305.7627118667));
#848=CARTESIAN_POINT('',(220.991525425969,184.881355934008,369.3220338992));
#849=CARTESIAN_POINT('',(220.991525425969,184.881355934008,305.7627118667));
#850=CARTESIAN_POINT('',(220.991525425969,184.881355934008,369.3220338992));
#851=CARTESIAN_POINT('Origin',(247.750000001652,192.000000001648,369.3220338992));
#852=CARTESIAN_POINT('',(322.750000000002,117.000000003298,369.3220338992));
#853=CARTESIAN_POINT('',(172.750000003302,117.000000003298,369.3220338992));
#854=CARTESIAN_POINT('',(322.750000000002,117.000000003298,369.3220338992));
#855=CARTESIAN_POINT('',(172.750000003302,266.999999999998,369.3220338992));
#856=CARTESIAN_POINT('',(172.750000003302,117.000000003298,369.3220338992));
#857=CARTESIAN_POINT('',(322.750000000002,266.999999999998,369.3220338992));
#858=CARTESIAN_POINT('',(172.750000003302,266.999999999998,369.3220338992));
#859=CARTESIAN_POINT('',(322.750000000002,266.999999999998,369.3220338992));
#860=CARTESIAN_POINT('',(240.694915256044,184.881355934008,369.3220338992));
#861=CARTESIAN_POINT('',(240.694915256044,184.881355934008,369.3220338992));
#862=CARTESIAN_POINT('',(240.694915256044,165.177966103933,369.3220338992));
#863=CARTESIAN_POINT('',(240.694915256044,165.177966103933,369.3220338992));
#864=CARTESIAN_POINT('',(254.805084747259,165.177966103933,369.3220338992));
#865=CARTESIAN_POINT('',(254.805084747259,165.177966103933,369.3220338992));
#866=CARTESIAN_POINT('',(254.805084747259,184.881355934008,369.3220338992));
#867=CARTESIAN_POINT('',(254.805084747259,184.881355934008,369.3220338992));
#868=CARTESIAN_POINT('',(274.508474577334,184.881355934008,369.3220338992));
#869=CARTESIAN_POINT('',(274.508474577334,184.881355934008,369.3220338992));
#870=CARTESIAN_POINT('',(274.508474577334,198.991525425223,369.3220338992));
#871=CARTESIAN_POINT('Origin',(172.750000003302,266.999999999998,369.3220338992));
#872=CARTESIAN_POINT('',(172.750000003302,117.000000003298,410.));
#873=CARTESIAN_POINT('',(172.750000003302,117.000000003298,369.3220338992));
#874=CARTESIAN_POINT('',(172.750000003302,266.999999999998,410.));
#875=CARTESIAN_POINT('',(172.750000003302,117.000000003298,410.));
#876=CARTESIAN_POINT('',(172.750000003302,266.999999999998,369.3220338992));
#877=CARTESIAN_POINT('Origin',(322.750000000002,266.999999999998,369.3220338992));
#878=CARTESIAN_POINT('',(322.750000000002,266.999999999998,410.));
#879=CARTESIAN_POINT('',(172.750000003302,266.999999999998,410.));
#880=CARTESIAN_POINT('',(322.750000000002,266.999999999998,369.3220338992));
#881=CARTESIAN_POINT('Origin',(322.750000000002,117.000000003298,369.3220338992));
#882=CARTESIAN_POINT('',(322.750000000002,117.000000003298,410.));
#883=CARTESIAN_POINT('',(322.750000000002,266.999999999998,410.));
#884=CARTESIAN_POINT('',(322.750000000002,117.000000003298,369.3220338992));
#885=CARTESIAN_POINT('Origin',(172.750000003302,117.000000003298,369.3220338992));
#886=CARTESIAN_POINT('',(322.750000000002,117.000000003298,410.));
#887=CARTESIAN_POINT('Origin',(247.750000001652,192.000000001648,410.));
#888=CARTESIAN_POINT('Origin',(274.508474577334,184.881355934008,305.7627118667));
#889=CARTESIAN_POINT('',(274.508474577334,184.881355934008,305.7627118667));
#890=CARTESIAN_POINT('Origin',(254.805084747259,184.881355934008,305.7627118667));
#891=CARTESIAN_POINT('',(254.805084747259,184.881355934008,305.7627118667));
#892=CARTESIAN_POINT('Origin',(254.805084747259,165.177966103933,305.7627118667));
#893=CARTESIAN_POINT('',(254.805084747259,165.177966103933,305.7627118667));
#894=CARTESIAN_POINT('Origin',(240.694915256044,165.177966103933,305.7627118667));
#895=CARTESIAN_POINT('',(240.694915256044,165.177966103933,305.7627118667));
#896=CARTESIAN_POINT('Origin',(240.694915256044,184.881355934008,305.7627118667));
#897=CARTESIAN_POINT('',(240.694915256044,184.881355934008,305.7627118667));
#898=CARTESIAN_POINT('Origin',(220.991525425969,184.881355934008,305.7627118667));
#899=UNCERTAINTY_MEASURE_WITH_UNIT(LENGTH_MEASURE(0.01),#903,
'DISTANCE_ACCURACY_VALUE',
'Maximum model space distance between geometric entities at asserted c
onnectivities');
#900=UNCERTAINTY_MEASURE_WITH_UNIT(LENGTH_MEASURE(0.01),#903,
'DISTANCE_ACCURACY_VALUE',
'Maximum model space distance between geometric entities at asserted c
onnectivities');
#901=(
GEOMETRIC_REPRESENTATION_CONTEXT(3)
GLOBAL_UNCERTAINTY_ASSIGNED_CONTEXT((#899))
GLOBAL_UNIT_ASSIGNED_CONTEXT((#903,#905,#906))
REPRESENTATION_CONTEXT('','3D')
);
#902=(
GEOMETRIC_REPRESENTATION_CONTEXT(3)
GLOBAL_UNCERTAINTY_ASSIGNED_CONTEXT((#900))
GLOBAL_UNIT_ASSIGNED_CONTEXT((#903,#905,#906))
REPRESENTATION_CONTEXT('','3D')
);
#903=(
LENGTH_UNIT()
NAMED_UNIT(*)
SI_UNIT(.MILLI.,.METRE.)
);
#904=(
LENGTH_UNIT()
NAMED_UNIT(*)
SI_UNIT($,.METRE.)
);
#905=(
NAMED_UNIT(*)
PLANE_ANGLE_UNIT()
SI_UNIT($,.RADIAN.)
);
#906=(
NAMED_UNIT(*)
SI_UNIT($,.STERADIAN.)
SOLID_ANGLE_UNIT()
);
#907=SHAPE_DEFINITION_REPRESENTATION(#908,#909);
#908=PRODUCT_DEFINITION_SHAPE('',$,#911);
#909=SHAPE_REPRESENTATION('',(#455),#901);
#910=PRODUCT_DEFINITION_CONTEXT('part definition',#915,'design');
#911=PRODUCT_DEFINITION('2026-06-04-20-41-35-303','piston',#912,#910);
#912=PRODUCT_DEFINITION_FORMATION('',$,#917);
#913=PRODUCT_RELATED_PRODUCT_CATEGORY('piston','piston',(#917));
#914=APPLICATION_PROTOCOL_DEFINITION('international standard',
'automotive_design',2009,#915);
#915=APPLICATION_CONTEXT(
'Core Data for Automotive Mechanical Design Process');
#916=PRODUCT_CONTEXT('part definition',#915,'mechanical');
#917=PRODUCT('2026-06-04-20-41-35-303','piston',$,(#916));
#918=PRESENTATION_STYLE_ASSIGNMENT((#919));
#919=SURFACE_STYLE_USAGE(.BOTH.,#920);
#920=SURFACE_SIDE_STYLE('',(#921));
#921=SURFACE_STYLE_FILL_AREA(#922);
#922=FILL_AREA_STYLE('Powder Coat (Dark Grey)',(#923));
#923=FILL_AREA_STYLE_COLOUR('Powder Coat (Dark Grey)',#924);
#924=COLOUR_RGB('Powder Coat (Dark Grey)',0.349019607843137,0.349019607843137,
0.349019607843137);
ENDSEC;
END-ISO-10303-21;
